<?xml version="1.0" encoding="UTF-8"?>
<svg width="24px" height="24px" viewBox="0 0 24 24" version="1.1" xmlns="http://www.w3.org/2000/svg" xmlns:xlink="http://www.w3.org/1999/xlink">
    <title>icon/account</title>
    <defs>
        <path d="M6,17.0002 C6,15.0002 10,13.8992 12,13.8992 C14,13.8992 18,15.0002 18,17.0002 L18,18.0002 L6,18.0002 L6,17.0002 Z M15,9.0002 C15,10.6602 13.66,12.0002 12,12.0002 C10.34,12.0002 9,10.6602 9,9.0002 C9,7.3402 10.34,6.0002 12,6.0002 C13.66,6.0002 15,7.3402 15,9.0002 L15,9.0002 Z M3,5.0002 L3,19.0002 C3,20.1002 3.89,21.0002 5,21.0002 L19,21.0002 C20.1,21.0002 21,20.1002 21,19.0002 L21,5.0002 C21,3.9002 20.1,3.0002 19,3.0002 L5,3.0002 C3.89,3.0002 3,3.9002 3,5.0002 L3,5.0002 Z" id="path-1"></path>
    </defs>
    <g id="icon/account" stroke="none" stroke-width="1" fill="none" fill-rule="evenodd">
        <mask id="mask-2" fill="white">
            <use xlink:href="#path-1"></use>
        </mask>
        <use id="蒙版" fill="#666666" xlink:href="#path-1"></use>
    </g>
</svg>