<?xml version="1.0" encoding="UTF-8"?>
<svg width="24px" height="24px" viewBox="0 0 24 24" version="1.1" xmlns="http://www.w3.org/2000/svg" xmlns:xlink="http://www.w3.org/1999/xlink">
    <!-- Generator: Sketch 55.1 (78136) - https://sketchapp.com -->
    <title>icon/add</title>
    <desc>Created with Sketch.</desc>
    <g id="图标切图20200305" stroke="none" stroke-width="1" fill="none" fill-rule="evenodd">
        <g id="Syetem-icons" transform="translate(-45.000000, -278.000000)" fill="#666666" fill-rule="nonzero">
            <g id="icon/add" transform="translate(45.000000, 278.000000)">
                <path d="M18,13 L13,13 L13,18 C13,18.55 12.55,19 12,19 C11.45,19 11,18.55 11,18 L11,13 L6,13 C5.45,13 5,12.55 5,12 C5,11.45 5.45,11 6,11 L11,11 L11,6 C11,5.45 11.45,5 12,5 C12.55,5 13,5.45 13,6 L13,11 L18,11 C18.55,11 19,11.45 19,12 C19,12.55 18.55,13 18,13 Z"></path>
            </g>
        </g>
    </g>
</svg>