<?xml version="1.0" encoding="UTF-8"?>
<svg width="24px" height="24px" viewBox="0 0 24 24" version="1.1" xmlns="http://www.w3.org/2000/svg" xmlns:xlink="http://www.w3.org/1999/xlink">
    <!-- Generator: Sketch 55.1 (78136) - https://sketchapp.com -->
    <title>icon/arrow_backarrow_back</title>
    <desc>Created with Sketch.</desc>
    <g id="图标切图20200305" stroke="none" stroke-width="1" fill="none" fill-rule="evenodd">
        <g id="Syetem-icons" transform="translate(-39.000000, -26.000000)" fill="#666666" fill-rule="nonzero">
            <g id="icon/arrow_back" transform="translate(39.000000, 26.000000)">
                <path d="M18.5825,10.5925 L7.4125,10.5925 L12.2925,5.7125 C12.6825,5.3225 12.6825,4.6825 12.2925,4.2925 C11.9025,3.9025 11.2725,3.9025 10.8825,4.2925 L4.2925,10.8825 C3.9025,11.2725 3.9025,11.9025 4.2925,12.2925 L10.8825,18.8825 C11.2725,19.2725 11.9025,19.2725 12.2925,18.8825 C12.6825,18.4925 12.6825,17.8625 12.2925,17.4725 L7.4125,12.5925 L18.5825,12.5925 C19.1325,12.5925 19.5825,12.1425 19.5825,11.5925 C19.5825,11.0425 19.1325,10.5925 18.5825,10.5925 Z" id="icon/arrow_backarrow_back"></path>
            </g>
        </g>
    </g>
</svg>