<?xml version="1.0" encoding="UTF-8"?>
<svg width="24px" height="24px" viewBox="0 0 24 24" version="1.1" xmlns="http://www.w3.org/2000/svg" xmlns:xlink="http://www.w3.org/1999/xlink">
    <!-- Generator: Sketch 55.1 (78136) - https://sketchapp.com -->
    <title>icon/cart</title>
    <desc>Created with Sketch.</desc>
    <g id="图标切图20200305" stroke="none" stroke-width="1" fill="none" fill-rule="evenodd">
        <g id="Syetem-icons" transform="translate(-431.000000, -278.000000)" fill="#666666">
            <g id="icon/cart" transform="translate(431.000000, 278.000000)">
                <path d="M16,20 C16,21.1 16.9,22 18,22 C19.1,22 20,21.1 20,20 C20,18.9 19.1,18 18,18 C16.9,18 16,18.9 16,20 Z M6,20 C6,21.1 6.9,22 8,22 C9.1,22 10,21.1 10,20 C10,18.9 9.1,18 8,18 C6.9,18 6,18.9 6,20 Z M7.2,6 L19.3,6 L16.5,11 L9.5,11 L7.2,6 Z M16.5,13 C17.3,13 17.9,12.6 18.3,12 L21.9,5.5 C22.2,4.8 21.8,4 21,4 L6.2,4 L5.3,2 L2.5,2 C2.22385763,2 2,2.22385763 2,2.5 L2,3.5 C2,3.77614237 2.22385763,4 2.5,4 L4,4 L7.6,11.6 L6.2,14 C5.5,15.3 6.4,17 8,17 L19.5,17 C19.7761424,17 20,16.7761424 20,16.5 L20,15.5 C20,15.2238576 19.7761424,15 19.5,15 L8,15 L9.1,13 L16.5,13 Z"></path>
            </g>
        </g>
    </g>
</svg>