<?xml version="1.0" encoding="UTF-8"?>
<svg width="24px" height="24px" viewBox="0 0 24 24" version="1.1" xmlns="http://www.w3.org/2000/svg" xmlns:xlink="http://www.w3.org/1999/xlink">
    <!-- Generator: Sketch 55.1 (78136) - https://sketchapp.com -->
    <title>icon/edit</title>
    <desc>Created with Sketch.</desc>
    <g id="图标切图20200305" stroke="none" stroke-width="1" fill="none" fill-rule="evenodd">
        <g id="Syetem-icons" transform="translate(-172.000000, -278.000000)" fill="#666666" fill-rule="nonzero">
            <g id="icon/edit" transform="translate(172.000000, 278.000000)">
                <path d="M19,10.3630642 C19,9.81077949 19.4477153,9.36306424 20,9.36306424 C20.5522847,9.36306424 21,9.81077949 21,10.3630642 L21,18.2222222 C21,19.7563465 19.7563465,21 18.2222222,21 L5.77777778,21 C4.24365347,21 3,19.7563465 3,18.2222222 L3,5.77777778 C3,4.24365347 4.24365347,3 5.77777778,3 L14.6903212,3 C15.2426059,3 15.6903212,3.44771525 15.6903212,4 C15.6903212,4.55228475 15.2426059,5 14.6903212,5 L5.77777778,5 C5.34822297,5 5,5.34822297 5,5.77777778 L5,18.2222222 C5,18.651777 5.34822297,19 5.77777778,19 L18.2222222,19 C18.651777,19 19,18.651777 19,18.2222222 L19,10.3630642 Z M20.2426407,4.75735931 C20.633165,5.1478836 20.633165,5.78104858 20.2426407,6.17157288 L13.1715729,13.2426407 C12.7810486,13.633165 12.1478836,13.633165 11.7573593,13.2426407 C11.366835,12.8521164 11.366835,12.2189514 11.7573593,11.8284271 L18.8284271,4.75735931 C19.2189514,4.36683502 19.8521164,4.36683502 20.2426407,4.75735931 Z"></path>
            </g>
        </g>
    </g>
</svg>