<?xml version="1.0" encoding="UTF-8"?>
<svg width="24px" height="24px" viewBox="0 0 24 24" version="1.1" xmlns="http://www.w3.org/2000/svg" xmlns:xlink="http://www.w3.org/1999/xlink">
    <!-- Generator: Sketch 55.1 (78136) - https://sketchapp.com -->
    <title>icon/email</title>
    <desc>Created with Sketch.</desc>
    <g id="图标切图20200305" stroke="none" stroke-width="1" fill="none" fill-rule="evenodd">
        <g id="Syetem-icons" transform="translate(-233.000000, -110.000000)" fill="#666666" fill-rule="nonzero">
            <g id="icon/email" transform="translate(233.000000, 110.000000)">
                <path d="M22,6 C22,4.9 21.1,4 20,4 L4,4 C2.9,4 2,4.9 2,6 L2,18 C2,19.1 2.9,20 4,20 L20,20 C21.1,20 22,19.1 22,18 L22,6 Z M20,6 L12,11 L4,6 L20,6 Z M20,18 L4,18 L4,8 L12,13 L20,8 L20,18 Z"></path>
            </g>
        </g>
    </g>
</svg>