<?xml version="1.0" encoding="UTF-8"?>
<svg width="24px" height="24px" viewBox="0 0 24 24" version="1.1" xmlns="http://www.w3.org/2000/svg" xmlns:xlink="http://www.w3.org/1999/xlink">
    <!-- Generator: Sketch 55.1 (78136) - https://sketchapp.com -->
    <title>icon/favorite_border</title>
    <desc>Created with Sketch.</desc>
    <g id="图标切图20200305" stroke="none" stroke-width="1" fill="none" fill-rule="evenodd">
        <g id="Syetem-icons" transform="translate(-105.000000, -110.000000)" fill="#666666" fill-rule="nonzero">
            <g id="icon/favorite_border" transform="translate(105.000000, 110.000000)">
                <path d="M19.6641195,3.99065415 C17.0241195,2.19065415 13.7641195,3.03065415 12.0041195,5.09065415 C10.2441195,3.03065415 6.98411947,2.18065415 4.34411947,3.99065415 C2.94411947,4.95065415 2.06411947,6.57065415 2.00411947,8.28065415 C1.86411947,12.1606542 5.30411947,15.2706542 10.5541195,20.0406542 L10.6541195,20.1306542 C11.4141195,20.8206542 12.5841195,20.8206542 13.3441195,20.1206542 L13.4541195,20.0206542 C18.7041195,15.2606542 22.1341195,12.1506542 22.0041195,8.27065415 C21.9441195,6.57065415 21.0641195,4.95065415 19.6641195,3.99065415 L19.6641195,3.99065415 Z M12.1041195,18.5506542 L12.0041195,18.6506542 L11.9041195,18.5506542 C7.14411947,14.2406542 4.00411947,11.3906542 4.00411947,8.50065415 C4.00411947,6.50065415 5.50411947,5.00065415 7.50411947,5.00065415 C9.04411947,5.00065415 10.5441195,5.99065415 11.0741195,7.36065415 L12.9441195,7.36065415 C13.4641195,5.99065415 14.9641195,5.00065415 16.5041195,5.00065415 C18.5041195,5.00065415 20.0041195,6.50065415 20.0041195,8.50065415 C20.0041195,11.3906542 16.8641195,14.2406542 12.1041195,18.5506542 Z"></path>
            </g>
        </g>
    </g>
</svg>