<?xml version="1.0" encoding="UTF-8"?>
<svg width="24px" height="24px" viewBox="0 0 24 24" version="1.1" xmlns="http://www.w3.org/2000/svg" xmlns:xlink="http://www.w3.org/1999/xlink">
    <!-- Generator: Sketch 55.1 (78136) - https://sketchapp.com -->
    <title>icon/gift</title>
    <desc>Created with Sketch.</desc>
    <g id="图标切图20200305" stroke="none" stroke-width="1" fill="none" fill-rule="evenodd">
        <g id="Syetem-icons" transform="translate(-495.000000, -278.000000)" fill="#666666">
            <g id="icon/gift" transform="translate(495.000000, 278.000000)">
                <path d="M20,7 C21.11,7 22,7.89 22,9 L22,20 C22,21.11 21.11,22 20,22 L4,22 C2.89,22 2,21.11 2,20 L2.01,9 C2.01,7.89 2.89,7 4,7 L6.18,7 C6.07,6.69 6,6.35 6,6 C6,4.34 7.34,3 9,3 C10.05,3 10.96,3.54 11.5,4.34 L12,5.02 L12.5,4.35 C13.04,3.54 13.95,3 15,3 C16.66,3 18,4.34 18,6 C18,6.35 17.93,6.69 17.82,7 L20,7 Z M9,5 C8.45,5 8,5.45 8,6 C8,6.55 8.45,7 9,7 C9.55,7 10,6.55 10,6 C10,5.45 9.55,5 9,5 Z M15,5 C14.45,5 14,5.45 14,6 C14,6.55 14.45,7 15,7 C15.55,7 16,6.55 16,6 C16,5.45 15.55,5 15,5 Z M20,15 L20,10 C20,9.45 19.55,9 19,9 L14.92,9 L16.4,11.02 C16.73,11.47 16.63,12.1 16.18,12.42 C15.74,12.74 15.11,12.64 14.79,12.2 L12,8.4 L9.21,12.2 C8.89,12.64 8.26,12.74 7.82,12.42 C7.37,12.1 7.27,11.47 7.6,11.02 L9.08,9 L5,9 C4.45,9 4,9.45 4,10 L4,15 L20,15 Z M4,20 L20,20 L20,18 L4,18 L4,20 Z"></path>
            </g>
        </g>
    </g>
</svg>