<?xml version="1.0" encoding="UTF-8"?>
<svg width="24px" height="24px" viewBox="0 0 24 24" version="1.1" xmlns="http://www.w3.org/2000/svg" xmlns:xlink="http://www.w3.org/1999/xlink">
    <!-- Generator: Sketch 55.1 (78136) - https://sketchapp.com -->
    <title>icon/list_bulleted</title>
    <desc>Created with Sketch.</desc>
    <g id="图标切图20200305" stroke="none" stroke-width="1" fill="none" fill-rule="evenodd">
        <g id="Syetem-icons" transform="translate(-169.000000, -26.000000)" fill="#666666" fill-rule="nonzero">
            <g id="icon/list_bulleted" transform="translate(169.000000, 26.000000)">
                <path d="M4.5,11 C3.67,11 3,11.67 3,12.5 C3,13.33 3.67,14 4.5,14 C5.33,14 6,13.33 6,12.5 C6,11.67 5.33,11 4.5,11 Z M4.5,5 C3.67,5 3,5.67 3,6.5 C3,7.33 3.67,8 4.5,8 C5.33,8 6,7.33 6,6.5 C6,5.67 5.33,5 4.5,5 Z M4.5,17 C3.67,17 3,17.68 3,18.5 C3,19.32 3.68,20 4.5,20 C5.32,20 6,19.32 6,18.5 C6,17.68 5.33,17 4.5,17 Z M8.5,19.5 L20.5,19.5 C21.05,19.5 21.5,19.05 21.5,18.5 C21.5,17.95 21.05,17.5 20.5,17.5 L8.5,17.5 C7.95,17.5 7.5,17.95 7.5,18.5 C7.5,19.05 7.95,19.5 8.5,19.5 Z M8.5,13.5 L20.5,13.5 C21.05,13.5 21.5,13.05 21.5,12.5 C21.5,11.95 21.05,11.5 20.5,11.5 L8.5,11.5 C7.95,11.5 7.5,11.95 7.5,12.5 C7.5,13.05 7.95,13.5 8.5,13.5 Z M7.5,6.5 C7.5,7.05 7.95,7.5 8.5,7.5 L20.5,7.5 C21.05,7.5 21.5,7.05 21.5,6.5 C21.5,5.95 21.05,5.5 20.5,5.5 L8.5,5.5 C7.95,5.5 7.5,5.95 7.5,6.5 Z"></path>
            </g>
        </g>
    </g>
</svg>