<?xml version="1.0" encoding="UTF-8"?>
<svg width="24px" height="24px" viewBox="0 0 24 24" version="1.1" xmlns="http://www.w3.org/2000/svg" xmlns:xlink="http://www.w3.org/1999/xlink">
    <!-- Generator: Sketch 55.1 (78136) - https://sketchapp.com -->
    <title>icon/online payment</title>
    <desc>Created with Sketch.</desc>
    <g id="图标切图20200305" stroke="none" stroke-width="1" fill="none" fill-rule="evenodd">
        <g id="Syetem-icons" transform="translate(-237.000000, -278.000000)" fill="#666666" fill-rule="nonzero">
            <g id="icon/online-payment" transform="translate(237.000000, 278.000000)">
                <path d="M4,7 C4,6.45 4.45,6 5,6 L21,6 C21.55,6 22,5.55 22,5 C22,4.45 21.55,4 21,4 L4,4 C2.9,4 2,4.9 2,6 L2,17 L1.5,17 C0.67,17 0,17.67 0,18.5 C0,19.33 0.67,20 1.5,20 L12.5,20 C13.33,20 14,19.33 14,18.5 C14,17.67 13.33,17 12.5,17 L4,17 L4,7 Z M23,8 L17,8 C16.45,8 16,8.45 16,9 L16,19 C16,19.55 16.45,20 17,20 L23,20 C23.55,20 24,19.55 24,19 L24,9 C24,8.45 23.55,8 23,8 Z M22,17 L18,17 L18,10 L22,10 L22,17 Z"></path>
            </g>
        </g>
    </g>
</svg>