<?xml version="1.0" encoding="UTF-8"?>
<svg width="24px" height="24px" viewBox="0 0 24 24" version="1.1" xmlns="http://www.w3.org/2000/svg" xmlns:xlink="http://www.w3.org/1999/xlink">
    <!-- Generator: Sketch 55.1 (78136) - https://sketchapp.com -->
    <title>icon/prepaid card</title>
    <desc>Created with Sketch.</desc>
    <g id="图标切图20200305" stroke="none" stroke-width="1" fill="none" fill-rule="evenodd">
        <g id="Syetem-icons" transform="translate(-303.000000, -278.000000)" fill="#666666" fill-rule="nonzero">
            <g id="icon/prepaid-card" transform="translate(303.000000, 278.000000)">
                <path d="M22,10 L22,6 C22,4.9 21.1,4 20,4 L4,4 C2.9,4 2.01,4.9 2.01,6 L2.01,10 C3.11,10 4,10.9 4,12 C4,13.1 3.11,14 2,14 L2,18 C2,19.1 2.9,20 4,20 L20,20 C21.1,20 22,19.1 22,18 L22,14 C20.9,14 20,13.1 20,12 C20,10.9 20.9,10 22,10 Z M20,8.54 C18.81,9.23 18,10.53 18,12 C18,13.47 18.81,14.77 20,15.46 L20,18 L4,18 L4,15.46 C5.19,14.77 6,13.47 6,12 C6,10.52 5.2,9.23 4.01,8.54 L4,6 L20,6 L20,8.54 Z M9.07,16 L12,14.12 L14.93,16 L14.04,12.64 L16.73,10.44 L13.26,10.23 L12,7 L10.73,10.22 L7.26,10.43 L9.95,12.63 L9.07,16 Z"></path>
            </g>
        </g>
    </g>
</svg>