<?xml version="1.0" encoding="UTF-8"?>
<svg width="24px" height="24px" viewBox="0 0 24 24" version="1.1" xmlns="http://www.w3.org/2000/svg" xmlns:xlink="http://www.w3.org/1999/xlink">
    <!-- Generator: Sketch 55.1 (78136) - https://sketchapp.com -->
    <title>icon/round-search</title>
    <desc>Created with Sketch.</desc>
    <g id="图标切图20200305" stroke="none" stroke-width="1" fill="none" fill-rule="evenodd">
        <g id="Syetem-icons" transform="translate(-554.000000, -26.000000)" fill="#666666" fill-rule="nonzero">
            <g id="icon/round-search" transform="translate(554.000000, 26.000000)">
                <path d="M15.5006256,14.0006256 L14.7106256,14.0006256 L14.4306256,13.7306256 C15.6306256,12.3306256 16.2506256,10.4206256 15.9106256,8.39062559 C15.4406256,5.61062559 13.1206256,3.39062559 10.3206256,3.05062559 C6.09062559,2.53062559 2.53062559,6.09062559 3.05062559,10.3206256 C3.39062559,13.1206256 5.61062559,15.4406256 8.39062559,15.9106256 C10.4206256,16.2506256 12.3306256,15.6306256 13.7306256,14.4306256 L14.0006256,14.7106256 L14.0006256,15.5006256 L18.2506256,19.7506256 C18.6606256,20.1606256 19.3306256,20.1606256 19.7406256,19.7506256 C20.1506256,19.3406256 20.1506256,18.6706256 19.7406256,18.2606256 L15.5006256,14.0006256 Z M9.50062559,14.0006256 C7.01062559,14.0006256 5.00062559,11.9906256 5.00062559,9.50062559 C5.00062559,7.01062559 7.01062559,5.00062559 9.50062559,5.00062559 C11.9906256,5.00062559 14.0006256,7.01062559 14.0006256,9.50062559 C14.0006256,11.9906256 11.9906256,14.0006256 9.50062559,14.0006256 Z"></path>
            </g>
        </g>
    </g>
</svg>