<?xml version="1.0" encoding="UTF-8"?>
<svg width="24px" height="24px" viewBox="0 0 24 24" version="1.1" xmlns="http://www.w3.org/2000/svg" xmlns:xlink="http://www.w3.org/1999/xlink">
    <!-- Generator: Sketch 55.1 (78136) - https://sketchapp.com -->
    <title>icon/view_list</title>
    <desc>Created with Sketch.</desc>
    <g id="图标切图20200305" stroke="none" stroke-width="1" fill="none" fill-rule="evenodd">
        <g id="Syetem-icons" transform="translate(-490.000000, -26.000000)" fill="#666666" fill-rule="nonzero">
            <g id="icon/view_list" transform="translate(490.000000, 26.000000)">
                <path d="M5,14 L7,14 C7.55,14 8,13.55 8,13 L8,11 C8,10.45 7.55,10 7,10 L5,10 C4.45,10 4,10.45 4,11 L4,13 C4,13.55 4.45,14 5,14 Z M5,19 L7,19 C7.55,19 8,18.55 8,18 L8,16 C8,15.45 7.55,15 7,15 L5,15 C4.45,15 4,15.45 4,16 L4,18 C4,18.55 4.45,19 5,19 Z M5,9 L7,9 C7.55,9 8,8.55 8,8 L8,6 C8,5.45 7.55,5 7,5 L5,5 C4.45,5 4,5.45 4,6 L4,8 C4,8.55 4.45,9 5,9 Z M10,14 L20,14 C20.55,14 21,13.55 21,13 L21,11 C21,10.45 20.55,10 20,10 L10,10 C9.45,10 9,10.45 9,11 L9,13 C9,13.55 9.45,14 10,14 Z M10,19 L20,19 C20.55,19 21,18.55 21,18 L21,16 C21,15.45 20.55,15 20,15 L10,15 C9.45,15 9,15.45 9,16 L9,18 C9,18.55 9.45,19 10,19 Z M9,6 L9,8 C9,8.55 9.45,9 10,9 L20,9 C20.55,9 21,8.55 21,8 L21,6 C21,5.45 20.55,5 20,5 L10,5 C9.45,5 9,5.45 9,6 Z"></path>
            </g>
        </g>
    </g>
</svg>