<?xml version="1.0" encoding="UTF-8"?>
<svg width="24px" height="24px" viewBox="0 0 24 24" version="1.1" xmlns="http://www.w3.org/2000/svg" xmlns:xlink="http://www.w3.org/1999/xlink">
    <!-- Generator: Sketch 55.1 (78136) - https://sketchapp.com -->
    <title>icon/view_module</title>
    <desc>Created with Sketch.</desc>
    <g id="图标切图20200305" stroke="none" stroke-width="1" fill="none" fill-rule="evenodd">
        <g id="Syetem-icons" transform="translate(-427.000000, -26.000000)" fill="#666666" fill-rule="nonzero">
            <g id="icon/view_module" transform="translate(427.000000, 26.000000)">
                <path d="M5,12 L8,12 C8.55,12 9,11.55 9,11 L9,7 C9,6.45 8.55,6 8,6 L5,6 C4.45,6 4,6.45 4,7 L4,11 C4,11.55 4.45,12 5,12 Z M5,19 L8,19 C8.55,19 9,18.55 9,18 L9,14 C9,13.45 8.55,13 8,13 L5,13 C4.45,13 4,13.45 4,14 L4,18 C4,18.55 4.45,19 5,19 Z M11,19 L14,19 C14.55,19 15,18.55 15,18 L15,14 C15,13.45 14.55,13 14,13 L11,13 C10.45,13 10,13.45 10,14 L10,18 C10,18.55 10.45,19 11,19 Z M17,19 L20,19 C20.55,19 21,18.55 21,18 L21,14 C21,13.45 20.55,13 20,13 L17,13 C16.45,13 16,13.45 16,14 L16,18 C16,18.55 16.45,19 17,19 Z M11,12 L14,12 C14.55,12 15,11.55 15,11 L15,7 C15,6.45 14.55,6 14,6 L11,6 C10.45,6 10,6.45 10,7 L10,11 C10,11.55 10.45,12 11,12 Z M16,7 L16,11 C16,11.55 16.45,12 17,12 L20,12 C20.55,12 21,11.55 21,11 L21,7 C21,6.45 20.55,6 20,6 L17,6 C16.45,6 16,6.45 16,7 Z"></path>
            </g>
        </g>
    </g>
</svg>