<?xml version="1.0" encoding="UTF-8"?>
<svg width="24px" height="24px" viewBox="0 0 24 24" version="1.1" xmlns="http://www.w3.org/2000/svg" xmlns:xlink="http://www.w3.org/1999/xlink">
    <!-- Generator: Sketch 55.1 (78136) - https://sketchapp.com -->
    <title>icon/visibility_off</title>
    <desc>Created with Sketch.</desc>
    <g id="图标切图20200305" stroke="none" stroke-width="1" fill="none" fill-rule="evenodd">
        <g id="Syetem-icons" transform="translate(-360.000000, -194.000000)" fill="#666666" fill-rule="nonzero">
            <g id="icon/visibility_off" transform="translate(360.000000, 194.000000)">
                <path d="M12,6.6325 C14.76,6.6325 17,8.8725 17,11.6325 C17,12.1425 16.9,12.6325 16.76,13.0925 L19.82,16.1525 C21.21,14.9225 22.31,13.3825 23,11.6225 C21.27,7.2425 17,4.1325 12,4.1325 C10.73,4.1325 9.51,4.3325 8.36,4.7025 L10.53,6.8725 C11,6.7325 11.49,6.6325 12,6.6325 Z M2.71,3.2925 C2.32,3.6825 2.32,4.3125 2.71,4.7025 L4.68,6.6725 C3.06,7.9625 1.77,9.6625 1,11.6325 C2.73,16.0225 7,19.1325 12,19.1325 C13.52,19.1325 14.97,18.8325 16.31,18.3125 L19.03,21.0325 C19.42,21.4225 20.05,21.4225 20.44,21.0325 C20.83,20.6425 20.83,20.0125 20.44,19.6225 L4.13,3.2925 C3.74,2.9025 3.1,2.9025 2.71,3.2925 Z M12,16.6325 C9.24,16.6325 7,14.3925 7,11.6325 C7,10.8625 7.18,10.1325 7.49,9.4925 L9.06,11.0625 C9.03,11.2425 9,11.4325 9,11.6325 C9,13.2925 10.34,14.6325 12,14.6325 C12.2,14.6325 12.38,14.6025 12.57,14.5625 L14.14,16.1325 C13.49,16.4525 12.77,16.6325 12,16.6325 Z M14.97,11.3025 C14.82,9.9025 13.72,8.8125 12.33,8.6625 L14.97,11.3025 Z"></path>
            </g>
        </g>
    </g>
</svg>