<?xml version="1.0" encoding="UTF-8"?>
<svg width="24px" height="24px" viewBox="0 0 24 24" version="1.1" xmlns="http://www.w3.org/2000/svg" xmlns:xlink="http://www.w3.org/1999/xlink">
    <!-- Generator: Sketch 55.1 (78136) - https://sketchapp.com -->
    <title>icon/visibility</title>
    <desc>Created with Sketch.</desc>
    <g id="图标切图20200305" stroke="none" stroke-width="1" fill="none" fill-rule="evenodd">
        <g id="Syetem-icons" transform="translate(-296.000000, -194.000000)" fill="#666666" fill-rule="nonzero">
            <g id="icon/visibility" transform="translate(296.000000, 194.000000)">
                <path d="M12,5 C7,5 2.73,8.11 1,12.5 C2.73,16.89 7,20 12,20 C17,20 21.27,16.89 23,12.5 C21.27,8.11 17,5 12,5 Z M12,17.5 C9.24,17.5 7,15.26 7,12.5 C7,9.74 9.24,7.5 12,7.5 C14.76,7.5 17,9.74 17,12.5 C17,15.26 14.76,17.5 12,17.5 Z M12,9.5 C10.34,9.5 9,10.84 9,12.5 C9,14.16 10.34,15.5 12,15.5 C13.66,15.5 15,14.16 15,12.5 C15,10.84 13.66,9.5 12,9.5 Z"></path>
            </g>
        </g>
    </g>
</svg>