<svg version="1.1" xmlns="http://www.w3.org/2000/svg" xmlns:xlink="http://www.w3.org/1999/xlink" viewBox="0 0 96 96" width="96" height="96">
	<defs>
		<path id="base" d="M84,18H12c-3.3,0-6,2.7-6,6v48c0,3.3,2.7,6,6,6h72c3.3,0,6-2.7,6-6V24C90,20.7,87.3,18,84,18z M24,72H12V24h12V72z M30,72h-3V24h3V72z M39,72h-6V24h6V72z M48,72h-6V24h6V72z M54,72h-3V24h3V72z M69,72H57V24h12V72z M75,72h-3V24h3V72z M84,72h-6V24h6V72z"/>
	</defs>
	<clipPath id="base_group">
		<path id="base" d="M84,18H12c-3.3,0-6,2.7-6,6v48c0,3.3,2.7,6,6,6h72c3.3,0,6-2.7,6-6V24C90,20.7,87.3,18,84,18z M24,72H12V24h12V72z M30,72h-3V24h3V72z M39,72h-6V24h6V72z M48,72h-6V24h6V72z M54,72h-3V24h3V72z M69,72H57V24h12V72z M75,72h-3V24h3V72z M84,72h-6V24h6V72z"/>
	</clipPath>
	<use xlink:href="#base" href="#base"  fill="#E98700"/>
	<g clip-path="url(#base_group)">
		<linearGradient id="Gradient1" x1="0" y1="0" x2="100%" y2="100%">
			<stop offset="0" stop-color="#E98700"/>
			<stop offset="1" stop-color="#E96800"/>
		</linearGradient>
		<use xlink:href="#base" href="#base"  fill="url(#Gradient1)"/>
		<radialGradient id="Gradient2" cx="50%" cy="50%" r="70%">
			<stop offset="0" stop-color="#E94100"/>
			<stop offset="1" stop-color="#E96800"/>
		</radialGradient>
		<rect fill="url(#Gradient2)" x="30" y="0" width="66" height="62" rx="6" ry="6"/>
		<linearGradient id="Gradient3" x1="15%" y1="100%" x2="100%" y2="85%">
			<stop offset="0" stop-color="#E9AF00"/>
			<stop offset="1" stop-color="#E96800"/>
		</linearGradient>
		<rect fill="url(#Gradient3)" x="0" y="0" width="68" height="42" rx="6" ry="6"/>
		<circle fill="#FFBF0B" fill-opacity=".5" cx="48" cy="96" r="38"/>
	</g>
</svg>
