<svg version="1.1" xmlns="http://www.w3.org/2000/svg" xmlns:xlink="http://www.w3.org/1999/xlink" viewBox="0 0 96 96" width="96" height="96">
	<defs>
		<path id="base_outline" d="M76,18c-8.2-5.4-16.7-1.3-21,3c-1.1,1.1-3.9,2.7-7,3c-3.1-0.2-5.9-1.9-7-3c-4.3-4.3-12.8-8.5-21-3S3.3,48.8,6,68c2.8,19.7,13.2,10.8,16,8s7.3-14,10-14c1.4,0,10.4,2,16,2s14.6-2,16-2c2.7,0,7.3,11.3,10,14s13.2,11.7,16-8C92.7,48.8,84.2,23.5,76,18z"/>
	</defs>
	<clipPath id="base_group">
		<path id="base" d="M76,18c-8.2-5.4-16.7-1.3-21,3c-1.1,1.1-3.9,2.7-7,3c-3.1-0.2-5.9-1.9-7-3c-4.3-4.3-12.8-8.5-21-3S3.3,48.8,6,68c2.8,19.7,13.2,10.8,16,8s7.3-14,10-14c1.4,0,10.4,2,16,2s14.6-2,16-2c2.7,0,7.3,11.3,10,14s13.2,11.7,16-8C92.7,48.8,84.2,23.5,76,18zM36,42h-6v6h-6v-6h-6v-6h6v-6h6v6h6V42z M69,30c1.7,0,3,1.3,3,3s-1.3,3-3,3s-3-1.3-3-3S67.3,30,69,30zM63,42c-1.7,0-3-1.3-3-3s1.3-3,3-3c1.7,0,3,1.3,3,3S64.7,42,63,42z M69,48c-1.7,0-3-1.3-3-3s1.3-3,3-3s3,1.3,3,3S70.7,48,69,48z M75,42c-1.7,0-3-1.3-3-3s1.3-3,3-3s3,1.3,3,3S76.7,42,75,42z"/>
	</clipPath>
	<g clip-path="url(#base_group)">
		<use xlink:href="#base_outline" href="#base_outline" fill="#6633FF"/>
		<use xlink:href="#base_outline" href="#base_outline" fill="#6666FF" x="4" y="8"/>
		<use xlink:href="#base_outline" href="#base_outline" fill="#6699FF" x="-6" y="16"/>
	</g>
</svg>
