<svg version="1.1" xmlns="http://www.w3.org/2000/svg" xmlns:xlink="http://www.w3.org/1999/xlink" viewBox="0 0 96 96" width="96" height="96">
	<defs>
		<path id="base" d="M6,72c0,3.3,2.7,6,6,6h72c3.3,0,6-2.7,6-6V42H6V72z M48,61c0-0.6,0.4-1,1-1h28c0.6,0,1,0.4,1,1v4c0,0.6-0.4,1-1,1H49c-0.6,0-1-0.4-1-1V61zM84,18H12c-3.3,0-6,2.7-6,6v12h84V24C90,20.7,87.3,18,84,18z"/>
	</defs>
	<clipPath id="base_group">
		<path id="base" d="M6,72c0,3.3,2.7,6,6,6h72c3.3,0,6-2.7,6-6V42H6V72z M48,61c0-0.6,0.4-1,1-1h28c0.6,0,1,0.4,1,1v4c0,0.6-0.4,1-1,1H49c-0.6,0-1-0.4-1-1V61zM84,18H12c-3.3,0-6,2.7-6,6v12h84V24C90,20.7,87.3,18,84,18z"/>
	</clipPath>
	<linearGradient id="Gradient1" x1="8%" y1="50%" x2="92%" y2="50%">
		<stop  offset="0" stop-color="#6715FF"/>
		<stop  offset="1" stop-color="#9300FF"/>
	</linearGradient>

	<use xlink:href="#base" href="#base"  fill="url(#Gradient1)"/>
	<g clip-path="url(#base_group)">
		<circle fill="#6699FF" cx="12" cy="78" r="36"/>
		<circle fill="#695FF9" cx="-6" cy="36" r="36"/>
		<circle fill="#9574FF" cx="66" cy="84" r="36"/>
	</g>
</svg>
