<?xml version="1.0" encoding="UTF-8" standalone="no"?>
<svg width="48px" height="48px" viewBox="0 0 48 48" version="1.1" xmlns="http://www.w3.org/2000/svg" xmlns:xlink="http://www.w3.org/1999/xlink">
    <!-- Generator: Sketch 49 (51002) - http://www.bohemiancoding.com/sketch -->
    <title>icon1_onlinepay</title>
    <desc>Created with Sketch.</desc>
    <defs>
        <linearGradient x1="10.5183602%" y1="96.1547146%" x2="100%" y2="0%" id="linearGradient-1">
            <stop stop-color="#FFB400" offset="0%"></stop>
            <stop stop-color="#FF7A00" offset="100%"></stop>
        </linearGradient>
    </defs>
    <g id="icon1_onlinepay" stroke="none" stroke-width="1" fill="none" fill-rule="evenodd">
        <g fill="url(#linearGradient-1)" id="card">
            <path d="M45,27.3426657 C43.3500445,25.3036669 40.8272661,24 38,24 C33.0294373,24 29,28.0294373 29,33 C29,36.4829314 30.978441,39.5037731 33.8727979,41 L7,41 C4.790861,41 3,39.209139 3,37 L3,19 L45,19 L45,27.3426657 Z M45,15 L3,15 L3,11 C3,8.790861 4.790861,7 7,7 L41,7 C43.209139,7 45,8.790861 45,11 L45,15 Z M8,27 C7.44771525,27 7,27.4477153 7,28 C7,28.5522847 7.44771525,29 8,29 L18,29 C18.5522847,29 19,28.5522847 19,28 C19,27.4477153 18.5522847,27 18,27 L8,27 Z M8,31 C7.44771525,31 7,31.4477153 7,32 C7,32.5522847 7.44771525,33 8,33 L12,33 C12.5522847,33 13,32.5522847 13,32 C13,31.4477153 12.5522847,31 12,31 L8,31 Z M38,40 C34.1340068,40 31,36.8659932 31,33 C31,29.1340068 34.1340068,26 38,26 C41.8659932,26 45,29.1340068 45,33 C45,36.8659932 41.8659932,40 38,40 Z M38,34.145028 L38,36.7900346 C38,36.895393 38.0332814,36.9980589 38.095094,37.0833794 C38.2571039,37.3070028 38.5697214,37.3569504 38.7933448,37.1949406 L42.8245894,33.5499233 C42.8674461,33.5188746 42.9051019,33.4812188 42.9361506,33.4383621 C43.0981604,33.2147387 43.0482128,32.9021212 42.8245894,32.7401113 L38.7933448,29.095094 C38.7080243,29.0332814 38.6053584,29 38.5,29 C38.2238576,29 38,29.2238576 38,29.5 L38,32.145028 L34,32.145028 C33.4477153,32.145028 33,32.5927432 33,33.145028 C33,33.6973127 33.4477153,34.145028 34,34.145028 L38,34.145028 Z"></path>
        </g>
    </g>
</svg>