<?xml version="1.0" encoding="UTF-8" standalone="no"?>
<svg width="48px" height="48px" viewBox="0 0 48 48" version="1.1" xmlns="http://www.w3.org/2000/svg" xmlns:xlink="http://www.w3.org/1999/xlink">
    <!-- Generator: Sketch 49 (51002) - http://www.bohemiancoding.com/sketch -->
    <title>icon1_prepaid</title>
    <desc>Created with Sketch.</desc>
    <defs>
        <linearGradient x1="10.5183602%" y1="96.1547146%" x2="100%" y2="0%" id="linearGradient-1">
            <stop stop-color="#FFB400" offset="0%"></stop>
            <stop stop-color="#FF7A00" offset="100%"></stop>
        </linearGradient>
    </defs>
    <g id="icon1_prepaid" stroke="none" stroke-width="1" fill="none" fill-rule="evenodd">
        <g id="card2_prepaid" fill="url(#linearGradient-1)">
            <path d="M45,18.0829584 C42.1622867,18.5590365 40,21.0270037 40,24 C40,26.9729963 42.1622867,29.4409635 45,29.9170416 L45,37 C45,39.209139 43.209139,41 41,41 L15,41 L15,7 L41,7 C43.209139,7 45,8.790861 45,11 L45,18.0829584 Z M3,18.0829584 L3,11 C3,8.790861 4.790861,7 7,7 L13,7 L13,41 L7,41 C4.790861,41 3,39.209139 3,37 L3,29.9170416 C5.83771334,29.4409635 8,26.9729963 8,24 C8,21.0270037 5.83771334,18.5590365 3,18.0829584 Z M28,27.5 L31.2177607,29.1916769 C31.3150909,29.2428464 31.426575,29.2605038 31.5349538,29.2419154 C31.807122,29.1952349 31.9899159,28.9367569 31.9432354,28.6645887 L31.3286978,25.0815595 L33.9319209,22.5440441 C34.0106627,22.4672898 34.0619063,22.3667186 34.0777186,22.2579001 C34.1174274,21.9846277 33.9280866,21.7309062 33.6548142,21.6911974 L30.0572484,21.1684405 L28.448368,17.9084929 C28.3997029,17.8098866 28.3198892,17.7300728 28.2212829,17.6814077 C27.973656,17.5591965 27.6738431,17.660866 27.551632,17.9084929 L25.9427516,21.1684405 L22.3451858,21.6911974 C22.2363673,21.7070097 22.1357961,21.7582533 22.0590418,21.8369951 C21.8662912,22.0347369 21.8703373,22.3512935 22.0680791,22.5440441 L24.6713022,25.0815595 L24.0567646,28.6645887 C24.0381762,28.7729675 24.0558335,28.8844515 24.107003,28.9817818 C24.2355034,29.2262041 24.537817,29.3201773 24.7822393,29.1916769 L28,27.5 Z" id="card2"></path>
        </g>
    </g>
</svg>