<svg version="1.1" xmlns="http://www.w3.org/2000/svg" xmlns:xlink="http://www.w3.org/1999/xlink" viewBox="0 0 96 96" width="96" height="96">
	<defs>
		<path id="base" d="M48,6C24.8,6,6,24.8,6,48c0,23.2,18.8,42,42,42s42-18.8,42-42C90,24.8,71.2,6,48,6z M63,29v10.5V57c0,3.9-3.1,7-7,7s-7-3.1-7-7c0-3.9,3.1-7,7-7c0.3,0,0.7,0,1,0.1v-9.6l-18,3V63c0,3.9-3.1,7-7,7s-7-3.1-7-7c0-3.9,3.1-7,7-7c0.3,0,0.7,0,1,0.1V44.5V35v-2.5l30-5V29z"/>
	</defs>
	<clipPath id="base_group">
		<use xlink:href="#base"/>
	</clipPath>
	<use xlink:href="#base" fill="#F43737"/>
	<g clip-path="url(#base_group)">
		<linearGradient id="Gradient1" x1="100%" y1="100%" x2="0" y2="0">
			<stop  offset="0" stop-color="#FFB055"/>
			<stop  offset="1" stop-color="#FF2E24"/>
		</linearGradient>
		<linearGradient id="Gradient2" x1="0" y1="0" x2="0" y2="100%">
			<stop  offset="0" stop-color="#FF5E55"/>
			<stop  offset="1" stop-color="#FF2E24"/>
		</linearGradient>
		<circle fill="url(#Gradient1)" cx="58" cy="100" r="42"/>
		<circle fill="url(#Gradient2)" cx="90" cy="48" r="42"/>
		<circle fill="#FC907E" fill-opacity=".3" cx="28" cy="76" r="42"/>
	</g>
</svg>
