<svg version="1.1" xmlns="http://www.w3.org/2000/svg" xmlns:xlink="http://www.w3.org/1999/xlink" viewBox="0 0 96 96" width="96" height="96">
	<defs>
		<path id="base" d="M78.2,57.8c5-5.9,10.9-14.1,7.8-29.4c-1.6-7.8-6.6-14.6-13.7-18.3c-7.4-4.1-15.6-5-21.1-5c-3.8,0-7.7,0.5-11.4,1.4c-8.3,2.6-15.3,8.2-19.7,15.6C16.4,27.6,15.5,34,17.3,39c0.1,0.1,0.2,0.1,0.2,0.2c0.3,0.4,0.2,0.9-0.2,1.2c-0.6,1-1.4,1.9-2.3,2.7c-1.8,2.8-4.6,6.4-5.5,9.2c-0.5,1-0.5,2.2,0,3.2l2.3,2.3c0.4,0,1.3,0.5,1.8,0.5s1,0.2,1.4,0.5c1.4,0.5,1.4,6.4,1.4,10.1v2.7c0,4.5,3.2,7.3,8.2,7.3c1.4,0,2.8-0.5,3.7-0.5c0.5-0.4,1.2-0.6,1.8-0.5c2.8,0,3.7,1,3.7,3.7v2.3c0,2.3,1.4,3.7,3.2,4.6c5,1.6,10.3,2.4,15.6,2.3c7-0.1,14-1.4,20.6-3.7c1-0.1,1.9-0.8,2.3-1.8c0.5-0.8,0.5-1.8,0-2.7c-2.8-4.7-3.6-10.3-2.3-15.6C73.6,63.8,75.9,61,78.2,57.8z M51.8,64.7c-1.9,0-3.4-1.5-3.4-3.4s1.5-3.4,3.4-3.4c1.9,0,3.4,1.5,3.4,3.4S53.7,64.7,51.8,64.7zM54.7,53.5h-6c-1.6-9.6,9.9-12.1,9.9-18.5c0-3.5-2.2-6-6.5-6c-3.2,0-6.2,1.4-8.2,3.9c-0.8,0.8-1,1.3-2.3,1.4c0,0-0.1,0-0.2,0C40,34.2,38.9,33,39,31.5c0.1-0.7,0.3-1.4,0.8-1.9c3.4-3.7,7.6-6.3,13.2-6.3c7.3,0,12.3,4,12.1,11.1C65.1,43.3,53.5,44.8,54.7,53.5z"/>
	</defs>
	<clipPath id="base_group">
		<path id="base" d="M78.2,57.8c5-5.9,10.9-14.1,7.8-29.4c-1.6-7.8-6.6-14.6-13.7-18.3c-7.4-4.1-15.6-5-21.1-5c-3.8,0-7.7,0.5-11.4,1.4c-8.3,2.6-15.3,8.2-19.7,15.6C16.4,27.6,15.5,34,17.3,39c0.1,0.1,0.2,0.1,0.2,0.2c0.3,0.4,0.2,0.9-0.2,1.2c-0.6,1-1.4,1.9-2.3,2.7c-1.8,2.8-4.6,6.4-5.5,9.2c-0.5,1-0.5,2.2,0,3.2l2.3,2.3c0.4,0,1.3,0.5,1.8,0.5s1,0.2,1.4,0.5c1.4,0.5,1.4,6.4,1.4,10.1v2.7c0,4.5,3.2,7.3,8.2,7.3c1.4,0,2.8-0.5,3.7-0.5c0.5-0.4,1.2-0.6,1.8-0.5c2.8,0,3.7,1,3.7,3.7v2.3c0,2.3,1.4,3.7,3.2,4.6c5,1.6,10.3,2.4,15.6,2.3c7-0.1,14-1.4,20.6-3.7c1-0.1,1.9-0.8,2.3-1.8c0.5-0.8,0.5-1.8,0-2.7c-2.8-4.7-3.6-10.3-2.3-15.6C73.6,63.8,75.9,61,78.2,57.8z M51.8,64.7c-1.9,0-3.4-1.5-3.4-3.4s1.5-3.4,3.4-3.4c1.9,0,3.4,1.5,3.4,3.4S53.7,64.7,51.8,64.7zM54.7,53.5h-6c-1.6-9.6,9.9-12.1,9.9-18.5c0-3.5-2.2-6-6.5-6c-3.2,0-6.2,1.4-8.2,3.9c-0.8,0.8-1,1.3-2.3,1.4c0,0-0.1,0-0.2,0C40,34.2,38.9,33,39,31.5c0.1-0.7,0.3-1.4,0.8-1.9c3.4-3.7,7.6-6.3,13.2-6.3c7.3,0,12.3,4,12.1,11.1C65.1,43.3,53.5,44.8,54.7,53.5z"/>
	</clipPath>
	<use xlink:href="#base" href="#base"  fill="#2247FB"/>
	<g clip-path="url(#base_group)">
		<circle fill="#60D0FF" fill-opacity="0.75" cx="66" cy="36" r="36"/>
		<circle fill="#60D0FF" fill-opacity="0.75" cx="108" cy="36" r="36"/>
		<circle fill="#384FF4" fill-opacity="0.5" cx="24" cy="60" r="36"/>
		<circle fill="#0389E5" fill-opacity="0.3" cx="24" cy="24" r="36"/>
	</g>
</svg>
