<?xml version="1.0" encoding="utf-8"?>
<!-- Generator: Adobe Illustrator 22.1.0, SVG Export Plug-In . SVG Version: 6.00 Build 0)  -->
<svg version="1.1" id="novice" xmlns="http://www.w3.org/2000/svg" xmlns:xlink="http://www.w3.org/1999/xlink" x="0px" y="0px"
	 viewBox="0 0 96 96" style="enable-background:new 0 0 96 96;" xml:space="preserve">
<style type="text/css">
	.st0{fill:#3F3FA8;}
	.st1{fill:#2247FB;}
	.st2{clip-path:url(#SVGID_2_);}
	.st3{opacity:0.75;fill:#60D0FF;enable-background:new    ;}
	.st4{opacity:0.5;fill:#384FF4;enable-background:new    ;}
	.st5{opacity:0.3;fill:#0389E5;enable-background:new    ;}
	.st6{fill:#FFFFFF;}
</style>
<title>novice</title>
<path fill="#3F3FA8" d="M78.2,57.8c-2.3,3.2-4.6,6-5,9.2c-1.3,5.3-0.5,10.9,2.3,15.6c0.5,0.9,0.5,1.9,0,2.7c-0.4,1-1.3,1.7-2.3,1.8
	c-6.6,2.3-13.6,3.6-20.6,3.7C47.3,90.9,42,90.1,37,88.5c-1.8-0.9-3.2-2.3-3.2-4.6v-2.3c0-2.7-0.9-3.7-3.7-3.7
	c-0.6-0.1-1.3,0.1-1.8,0.5c-0.9,0-2.3,0.5-3.7,0.5c-5,0-8.2-2.8-8.2-7.3v-2.7c0-3.7,0-9.6-1.4-10.1c-0.4-0.3-0.9-0.5-1.4-0.5
	s-1.4-0.5-1.8-0.5l-2.3-2.3c-0.5-1-0.5-2.2,0-3.2c0.9-2.8,3.7-6.4,5.5-9.2c0.9-0.8,1.7-1.7,2.3-2.7c0.4-0.3,0.5-0.8,0.2-1.2
	c0-0.1-0.1-0.1-0.2-0.2c-1.8-5-0.9-11.4,2.8-16.9c4.4-7.4,11.4-13,19.7-15.6c3.7-0.9,7.6-1.4,11.4-1.4c5.5,0,13.7,0.9,21.1,5
	c7.1,3.7,12.1,10.5,13.7,18.3C89.1,43.7,83.2,51.9,78.2,57.8z"/>
<path fill="#2247FB" d="M78.2,57.8c-2.3,3.2-4.6,6-5,9.2c-1.3,5.3-0.5,10.9,2.3,15.6c0.5,0.9,0.5,1.9,0,2.7c-0.4,1-1.3,1.7-2.3,1.8
	c-6.6,2.3-13.6,3.6-20.6,3.7C47.3,90.9,42,90.1,37,88.5c-1.8-0.9-3.2-2.3-3.2-4.6v-2.3c0-2.7-0.9-3.7-3.7-3.7
	c-0.6-0.1-1.3,0.1-1.8,0.5c-0.9,0-2.3,0.5-3.7,0.5c-5,0-8.2-2.8-8.2-7.3v-2.7c0-3.7,0-9.6-1.4-10.1c-0.4-0.3-0.9-0.5-1.4-0.5
	s-1.4-0.5-1.8-0.5l-2.3-2.3c-0.5-1-0.5-2.2,0-3.2c0.9-2.8,3.7-6.4,5.5-9.2c0.9-0.8,1.7-1.7,2.3-2.7c0.4-0.3,0.5-0.8,0.2-1.2
	c0-0.1-0.1-0.1-0.2-0.2c-1.8-5-0.9-11.4,2.8-16.9c4.4-7.4,11.4-13,19.7-15.6c3.7-0.9,7.6-1.4,11.4-1.4c5.5,0,13.7,0.9,21.1,5
	c7.1,3.7,12.1,10.5,13.7,18.3C89.1,43.7,83.2,51.9,78.2,57.8z"/>
<g>
	<g>
		<clipPath id="SVGID_2_">
			<path id="SVGID_1_" d="M78.2,57.8c-2.3,3.2-4.6,6-5,9.2c-1.3,5.3-0.5,10.9,2.3,15.6c0.5,0.9,0.5,1.9,0,2.7
				c-0.4,1-1.3,1.7-2.3,1.8c-6.6,2.3-13.6,3.6-20.6,3.7C47.3,90.9,42,90.1,37,88.5c-1.8-0.9-3.2-2.3-3.2-4.6v-2.3
				c0-2.7-0.9-3.7-3.7-3.7c-0.6-0.1-1.3,0.1-1.8,0.5c-0.9,0-2.3,0.5-3.7,0.5c-5,0-8.2-2.8-8.2-7.3v-2.7c0-3.7,0-9.6-1.4-10.1
				c-0.4-0.3-0.9-0.5-1.4-0.5s-1.4-0.5-1.8-0.5l-2.3-2.3c-0.5-1-0.5-2.2,0-3.2c0.9-2.8,3.7-6.4,5.5-9.2c0.9-0.8,1.7-1.7,2.3-2.7
				c0.4-0.3,0.5-0.8,0.2-1.2c0-0.1-0.1-0.1-0.2-0.2c-1.8-5-0.9-11.4,2.8-16.9c4.4-7.4,11.4-13,19.7-15.6c3.7-0.9,7.6-1.4,11.4-1.4
				c5.5,0,13.7,0.9,21.1,5c7.1,3.7,12.1,10.5,13.7,18.3C89.1,43.7,83.2,51.9,78.2,57.8z"/>
		</clipPath>
		<g clip-path="url(#SVGID_2_)">
			<circle fill="#60D0FF" fill-opacity="0.75" cx="63.2" cy="39.2" r="37.1" />
			<circle fill="#384FF4" fill-opacity="0.75" cx="113.4" cy="35.2" r="37.1" />
			<circle fill="#60D0FF" fill-opacity="0.5" cx="24.9" cy="59.9" r="39.4"/>
			<circle fill="#0389E5" fill-opacity="0.3" cx="24.9" cy="21.4" r="39.4"/>
			<!--<circle fill="#60D0FF" opacity="0.75" cx="63.2" cy="39.2" r="37.1" />-->
			<!--<circle fill="#384FF4" opacity="0.75" cx="113.4" cy="35.2" r="37.1" />-->
			<!--<circle fill="#60D0FF" opacity="0.5" cx="24.9" cy="59.9" r="39.4"/>-->
			<!--<circle fill="#0389E5" opacity="0.3" cx="24.9" cy="21.4" r="39.4"/>-->
		</g>
	</g>
</g>
<path fill="#FFFFFF" d="M52.4,59.8c-1.9,0-3.4,1.5-3.4,3.4c0,1.9,1.5,3.4,3.4,3.4s3.4-1.5,3.4-3.4S54.3,59.8,52.4,59.8L52.4,59.8z"/>
<path fill="#FFFFFF" d="M53.6,25.3c-5.6,0-9.8,2.6-13.2,6.3l0,0c-0.5,0.5-0.7,1.2-0.8,1.9c-0.1,1.4,1,2.6,2.4,2.7c0.1,0,0.2,0,0.2,0
	c1.3-0.1,1.5-0.6,2.3-1.4c2-2.5,5-3.9,8.2-3.9c4.3,0,6.5,2.5,6.5,6c0,6.4-11.5,8.9-9.9,18.5h6c-1.2-8.6,10.4-10.1,10.4-19
	C65.9,29.3,60.9,25.3,53.6,25.3z"/>
</svg>
