<svg version="1.1" xmlns="http://www.w3.org/2000/svg" xmlns:xlink="http://www.w3.org/1999/xlink" viewBox="0 0 96 96" width="96" height="96">
	<defs>
		<path id="base" d="M83.9,26.1L49,5.8c-0.6-0.4-1.4-0.4-2,0L12.1,26c-0.6,0.4-1,1-1,1.7v40.5c0,0.7,0.4,1.4,1,1.7L47,90.2c0.6,0.4,1.4,0.4,2,0L83.9,70c0.6-0.4,1-1,1-1.7V27.8C84.9,27.1,84.5,26.4,83.9,26.1z M36.2,64h-4.4c-1.3,0-1.7-0.6-1.7-1.7V44c0-1.1,0.6-2.1,2.2-2.1h4V64z M61.7,61.8c-0.2,0.6-0.6,1.3-1.3,1.6c-0.6,0.3-1.4,0.5-2.1,0.5H38.6V41.5c0.3-0.3,0.5-0.3,1-0.5c2.1-1.9,3.3-4.4,3.8-7.1c1-3.2,0.3-5.7,4.8-5.9c2.5,0,4.3,3.8,4.3,7c0,1.3-0.5,2.7-1.1,4c-0.8,1.9-1,2.1-0.5,2.1h10.9h0.2c2.2,0,4.1,1.9,4.1,4.1L61.7,61.8z"/>
	</defs>
	<clipPath id="base_group">
		<path id="base" d="M83.9,26.1L49,5.8c-0.6-0.4-1.4-0.4-2,0L12.1,26c-0.6,0.4-1,1-1,1.7v40.5c0,0.7,0.4,1.4,1,1.7L47,90.2c0.6,0.4,1.4,0.4,2,0L83.9,70c0.6-0.4,1-1,1-1.7V27.8C84.9,27.1,84.5,26.4,83.9,26.1z M36.2,64h-4.4c-1.3,0-1.7-0.6-1.7-1.7V44c0-1.1,0.6-2.1,2.2-2.1h4V64z M61.7,61.8c-0.2,0.6-0.6,1.3-1.3,1.6c-0.6,0.3-1.4,0.5-2.1,0.5H38.6V41.5c0.3-0.3,0.5-0.3,1-0.5c2.1-1.9,3.3-4.4,3.8-7.1c1-3.2,0.3-5.7,4.8-5.9c2.5,0,4.3,3.8,4.3,7c0,1.3-0.5,2.7-1.1,4c-0.8,1.9-1,2.1-0.5,2.1h10.9h0.2c2.2,0,4.1,1.9,4.1,4.1L61.7,61.8z"/>
	</clipPath>
	<linearGradient id="Gradient1" x1="0" y1="100%" x2="100%" y2="0">
		<stop  offset="0" stop-color="#FF2A36"/>
		<stop  offset="0.5" stop-color="#FF3F65"/>
		<stop  offset="1" stop-color="#FF55AF"/>
	</linearGradient>
	<use xlink:href="#base" href="#base"  fill="url(#Gradient1)"/>
	<g clip-path="url(#base_group)">
		<linearGradient id="Gradient2" x1="0" y1="0" x2="100%" y2="0">
			<stop  offset="0" stop-color="#FF2A36"/>
			<stop  offset="0.25" stop-color="#FF3F65"/>
			<stop  offset="1" stop-color="#FF9464"/>
		</linearGradient>
		<path fill="url(#Gradient2)" d="M32.8,24L-2,44.3c-0.6,0.4-1,1-1,1.7v40.5c0,0.7,0.4,1.4,1,1.7l34.9,20.2c0.6,0.4,1.4,0.4,2,0l34.9-20.2c0.6-0.4,1-1,1-1.7V46c0-0.7-0.4-1.4-1-1.7L34.8,24C34.2,23.6,33.5,23.6,32.8,24z"/>
		<linearGradient id="Gradient2" x1="50%" y1="50%" x2="100%" y2="50%">
			<stop  offset="0" stop-color="#FF2A36"/>
			<stop  offset="1" stop-color="#FF9464"/>
		</linearGradient>
		<path fill="url(#Gradient2)" d="M85.3,49.7L50.5,70c-0.6,0.4-1,1-1,1.7v40.5c0,0.7,0.4,1.4,1,1.7l34.9,20.2c0.6,0.4,1.4,0.4,2,0l34.9-20.2c0.6-0.4,1-1,1-1.7V71.7c0-0.7-0.4-1.4-1-1.7l-35-20.3C86.7,49.4,86,49.4,85.3,49.7z"/>
	</g>
</svg>
