<svg version="1.1" xmlns="http://www.w3.org/2000/svg" xmlns:xlink="http://www.w3.org/1999/xlink" viewBox="0 0 96 96" width="96" height="96">
	<defs>
		<path id="base" d="M69,6H27c-3.3,0-6,2.7-6,6v72c0,3.3,2.7,6,6,6h42c3.3,0,6-2.7,6-6V12C75,8.7,72.3,6,69,6z M56.5,51.8c0.2,3.8-2.5,7.1-6.3,7.6v4c0,0.8-0.7,1.5-1.6,1.6c-1,0.1-1.8-0.6-1.9-1.6v-3.9c-2.5-0.3-4.8-1.3-6.8-2.9c-1-0.5-1.3-1.7-0.8-2.7s1.7-1.3,2.7-0.8l0.1,0.1c1.7,1.3,3.8,2,5.9,2c2.5,0,3.7-1.2,3.7-3.2c0-4.8-10.9-4.4-10.9-11.9c-0.2-3.6,2.5-6.8,6.1-7.3v-4c0-0.8,0.7-1.5,1.6-1.6c1-0.1,1.8,0.6,1.9,1.6v4c2.3,0.4,4.4,1.5,6,3.3c0.5,0.4,0.7,0.9,0.7,1.5c0,0.5-0.2,0.9-0.5,1.3c-0.7,0.8-2,0.9-2.8,0.2C52.4,37.8,50.8,37,49,37c-2.1,0-3.3,1-3.3,3C45.7,44.5,56.6,43.8,56.5,51.8z"/>
	</defs>
	<clipPath id="base_group">
		<path id="base" d="M69,6H27c-3.3,0-6,2.7-6,6v72c0,3.3,2.7,6,6,6h42c3.3,0,6-2.7,6-6V12C75,8.7,72.3,6,69,6z M56.5,51.8c0.2,3.8-2.5,7.1-6.3,7.6v4c0,0.8-0.7,1.5-1.6,1.6c-1,0.1-1.8-0.6-1.9-1.6v-3.9c-2.5-0.3-4.8-1.3-6.8-2.9c-1-0.5-1.3-1.7-0.8-2.7s1.7-1.3,2.7-0.8l0.1,0.1c1.7,1.3,3.8,2,5.9,2c2.5,0,3.7-1.2,3.7-3.2c0-4.8-10.9-4.4-10.9-11.9c-0.2-3.6,2.5-6.8,6.1-7.3v-4c0-0.8,0.7-1.5,1.6-1.6c1-0.1,1.8,0.6,1.9,1.6v4c2.3,0.4,4.4,1.5,6,3.3c0.5,0.4,0.7,0.9,0.7,1.5c0,0.5-0.2,0.9-0.5,1.3c-0.7,0.8-2,0.9-2.8,0.2C52.4,37.8,50.8,37,49,37c-2.1,0-3.3,1-3.3,3C45.7,44.5,56.6,43.8,56.5,51.8z"/>
	</clipPath>
	<linearGradient id="Gradient1" x1="0" y1="0" x2="100%" y2="100%">
		<stop offset="0" stop-color="#2EA7E0"/>
		<stop offset="1" stop-color="#6DDEFE"/>
	</linearGradient>
	<use xlink:href="#base" href="#base" fill="url(#Gradient1)"/>
	<g clip-path="url(#base_group)">
		<circle fill="#1D84FF" opacity=".5" cx="102" cy="84" r="72"/>
		<circle fill="#1D84FF" opacity=".5" cx="-6" cy="84" r="60"/>
	</g>
	<path fill="#0070c1" d="M69,6H27c-3.3,0-6,2.7-6,6v72c0,3.3,2.7,6,6,6h42c3.3,0,6-2.7,6-6V12C75,8.7,72.3,6,69,6z M69,81c0,1.7-1.3,3-3,3H30c-1.7,0-3-1.3-3-3V15c0-1.7,1.3-3,3-3h36c1.7,0,3,1.3,3,3V81zM48,81c-1.7,0-3-1.3-3-3s1.3-3,3-3s3,1.3,3,3S49.7,81,48,81z"/>
</svg>
