<?xml version="1.0" encoding="UTF-8" standalone="no"?>
<svg width="24px" height="24px" viewBox="0 0 24 24" version="1.1" xmlns="http://www.w3.org/2000/svg">
    <g stroke="none" stroke-width="1" fill="none" fill-rule="evenodd">
        <g id="07Cart-Select-afterVC" transform="translate(-16.000000, -467.000000)">
            <g id="Check-Out" transform="translate(0.000000, 451.000000)">
                <g id="VC2">
                    <g id="checkbox" transform="translate(16.000000, 16.000000)">
                        <g>
                            <rect id="2" fill="#FB8E29" x="0" y="0" width="24" height="24" rx="2"></rect>
                            <path d="M6,12.4142136 L18.5,12.4142136 C18.7761424,12.4142136 19,12.6380712 19,12.9142136 C19,13.1903559 18.7761424,13.4142136 18.5,13.4142136 L5.5,13.4142136 C5.2531077,13.4142136 5.04801037,13.235268 5.00733106,13 L5,13 L5,5.5 C5,5.22385763 5.22385763,5 5.5,5 C5.77614237,5 6,5.22385763 6,5.5 L6,12.4142136 Z" id="Combined-Shape" fill="#FFFFFF" transform="translate(12.000000, 9.207107) rotate(-45.000000) translate(-12.000000, -9.207107) "></path>
                        </g>
                    </g>
                </g>
            </g>
        </g>
    </g>
</svg>