<svg version="1.1" xmlns="http://www.w3.org/2000/svg" xmlns:xlink="http://www.w3.org/1999/xlink" viewBox="0 0 96 96" width="96" height="96">
	<defs>
		<path id="base" d="M66,60c2.2,0,4.1-1.2,5.2-3l15-24c0.5-0.9,0.8-1.9,0.8-3c0-3.3-2.7-6-6-6H24l-6-12H6v6h6l18,36l-5,8.7c-0.6,1-1,2.1-1,3.3c0,0.2,0,0.3,0,0.5c-3.5,1.2-6,4.5-6,8.5c0,5,4,9,9,9s9-4,9-9c0-1.1-0.2-2.1-0.5-3h25c-0.3,0.9-0.5,1.9-0.5,3c0,5,4,9,9,9s9-4,9-9s-4-9-9-9H36c-1.1,0-2-0.9-2-2l2-4H66z M72,75c0,1.7-1.3,3-3,3s-3-1.3-3-3s1.3-3,3-3S72,73.3,72,75z M27,78c-1.7,0-3-1.3-3-3s1.3-3,3-3s3,1.3,3,3S28.7,78,27,78z"/>
	</defs>
	<clipPath id="base_group">
		<use xlink:href="#base"/>
	</clipPath>
	<linearGradient id="Gradient1" x1="0" y1="0" x2="100%" y2="0">
		<stop  offset="0" stop-color="#D33FFF"/>
		<stop  offset="0.5" stop-color="#6E00BF"/>
		<stop  offset="1" stop-color="#3882E9"/>
	</linearGradient>
	<use xlink:href="#base" fill="url(#Gradient1)"/>

	<g clip-path="url(#base_group)">
		<linearGradient id="Gradient4" x1="0" y1="0" x2="100%" y2="0">
			<stop  offset="0" stop-color="#A52AFF"/>
			<stop  offset="1" stop-color="#A329FF"/>
		</linearGradient>
		<circle fill="url(#Gradient4)" cx="96" cy="96" r="70"/>
	</g>
</svg>
