<svg version="1.1" xmlns="http://www.w3.org/2000/svg" xmlns:xlink="http://www.w3.org/1999/xlink" viewBox="0 0 96 96" width="96" height="96">
	<defs>
		<path id="base" d="M48,6C24.8,6,6,24.8,6,48c0,23.2,18.8,42,42,42s42-18.8,42-42C90,24.8,71.2,6,48,6z M48,12L48,12C48,12,48,12,48,12C48,12,48,12,48,12z M57,48c0,5-4,9-9,9s-9-4-9-9c0-5,4-9,9-9S57,43,57,48zM41.4,12.6l3.9,20.6c-2,0.4-3.9,1.1-5.5,2.2L28.2,18C32.1,15.4,36.6,13.5,41.4,12.6z M43,83.6C25.5,81.2,12,66.2,12,48c0-0.7,0-1.4,0.1-2.2l21,1.3c0,0.3,0,0.6,0,0.9c0,7.3,5.3,13.4,12.2,14.7l-3.9,20.6C41.9,83.5,42.4,83.6,43,83.6zM48,84L48,84C48,84,48,84,48,84C48,84,48,84,48,84z M54.6,83.4l-3.9-20.6c2-0.4,3.9-1.1,5.5-2.2L67.8,78C63.9,80.6,59.4,82.5,54.6,83.4zM63,48.9c0-0.3,0-0.6,0-0.9c0-7.3-5.3-13.4-12.2-14.7l3.9-20.6C71.3,15.7,84,30.4,84,48c0,0.7,0,1.4-0.1,2.2L63,48.9z"/>
	</defs>
	<clipPath id="base_group">
		<path id="base" d="M48,6C24.8,6,6,24.8,6,48c0,23.2,18.8,42,42,42s42-18.8,42-42C90,24.8,71.2,6,48,6z M48,12L48,12C48,12,48,12,48,12C48,12,48,12,48,12z M57,48c0,5-4,9-9,9s-9-4-9-9c0-5,4-9,9-9S57,43,57,48zM41.4,12.6l3.9,20.6c-2,0.4-3.9,1.1-5.5,2.2L28.2,18C32.1,15.4,36.6,13.5,41.4,12.6z M43,83.6C25.5,81.2,12,66.2,12,48c0-0.7,0-1.4,0.1-2.2l21,1.3c0,0.3,0,0.6,0,0.9c0,7.3,5.3,13.4,12.2,14.7l-3.9,20.6C41.9,83.5,42.4,83.6,43,83.6zM48,84L48,84C48,84,48,84,48,84C48,84,48,84,48,84z M54.6,83.4l-3.9-20.6c2-0.4,3.9-1.1,5.5-2.2L67.8,78C63.9,80.6,59.4,82.5,54.6,83.4zM63,48.9c0-0.3,0-0.6,0-0.9c0-7.3-5.3-13.4-12.2-14.7l3.9-20.6C71.3,15.7,84,30.4,84,48c0,0.7,0,1.4-0.1,2.2L63,48.9z"/>
	</clipPath>
	<use xlink:href="#base" href="#base"  fill="#2A5BFF"/>
	<g clip-path="url(#base_group)">
		<linearGradient id="Gradient1" x1="0" y1="0" x2="100%" y2="0">
			<stop offset="0" stop-color="#2A5BFF"/>
			<stop offset="0.7" stop-color="#9473FE"/>
			<stop offset="1" stop-color="#6566FF"/>
		</linearGradient>
		<circle fill="url(#Gradient1)" cx="48" cy="48" r="42"/>
		<circle fill="#1EBBF9" opacity=".25" cx="72" cy="48" r="42"/>
		<circle fill="#1EBBF9" opacity=".25" cx="96" cy="48" r="42"/>
	</g>
</svg>