<svg version="1.1" xmlns="http://www.w3.org/2000/svg" xmlns:xlink="http://www.w3.org/1999/xlink" viewBox="0 0 96 96" width="96" height="96">
	<defs>
		<path id="base" d="M36,23h3c0,0,0,3,3,3s3-3,3-3v-6c0,0,0-3-3-3s-3,3-3,3h-3l-2-3H21l-9,12h22L36,23z M72,32c0,0,6-3,6-8c0-3,0,0,0-3c0-5-6-9-6-9v12l-4.5,3L63,24V12c0,0-6,4-6,9c0,3,0,0,0,3c0,5,6,8,6,8v10H34V30h-9v12c0,0-8,0-10,0s-3,1-3,3s0,10,0,12s1,3,3,3s63,0,66,0c2,0,3-1,3-3c0.1-3,0-9,0-12c0-2-1-3-3-3c-2.6,0-9,0-9,0V32z M21,54c-1.7,0-3-1.3-3-3s1.3-3,3-3s3,1.3,3,3S22.7,54,21,54z M75,48c1.7,0,3,1.3,3,3s-1.3,3-3,3s-3-1.3-3-3S73.3,48,75,48z M12,69c0,2,0,10,0,12s1,3,3,3s64,0,66,0s3-1,3-3s0-10,0-12s-1-3-3-3s-64,0-66,0S12,67,12,69z M21,78c-1.7,0-3-1.3-3-3s1.3-3,3-3s3,1.3,3,3S22.7,78,21,78zM75,72c1.7,0,3,1.3,3,3s-1.3,3-3,3s-3-1.3-3-3S73.3,72,75,72z"/>
	</defs>
	<clipPath id="base_group">
		<path id="base" d="M36,23h3c0,0,0,3,3,3s3-3,3-3v-6c0,0,0-3-3-3s-3,3-3,3h-3l-2-3H21l-9,12h22L36,23z M72,32c0,0,6-3,6-8c0-3,0,0,0-3c0-5-6-9-6-9v12l-4.5,3L63,24V12c0,0-6,4-6,9c0,3,0,0,0,3c0,5,6,8,6,8v10H34V30h-9v12c0,0-8,0-10,0s-3,1-3,3s0,10,0,12s1,3,3,3s63,0,66,0c2,0,3-1,3-3c0.1-3,0-9,0-12c0-2-1-3-3-3c-2.6,0-9,0-9,0V32z M21,54c-1.7,0-3-1.3-3-3s1.3-3,3-3s3,1.3,3,3S22.7,54,21,54z M75,48c1.7,0,3,1.3,3,3s-1.3,3-3,3s-3-1.3-3-3S73.3,48,75,48z M12,69c0,2,0,10,0,12s1,3,3,3s64,0,66,0s3-1,3-3s0-10,0-12s-1-3-3-3s-64,0-66,0S12,67,12,69z M21,78c-1.7,0-3-1.3-3-3s1.3-3,3-3s3,1.3,3,3S22.7,78,21,78zM75,72c1.7,0,3,1.3,3,3s-1.3,3-3,3s-3-1.3-3-3S73.3,72,75,72z"/>
	</clipPath>
	<use xlink:href="#base" href="#base" fill="#045B81"/>
	<g clip-path="url(#base_group)">
		<circle fill="#038879" cx="96" cy="96" r="84"/>
		<circle fill="#02BB6C" cx="96" cy="96" r="60"/>
	</g>
</svg>
