<svg version="1.1" xmlns="http://www.w3.org/2000/svg" xmlns:xlink="http://www.w3.org/1999/xlink" viewBox="0 0 96 96" width="96" height="96">
	<defs>
		<path id="base" d="M48,6C24.8,6,6,24.8,6,48c0,23.2,18.8,42,42,42s42-18.8,42-42C90,24.8,71.2,6,48,6z M63.3,51.2L40.7,66l-0.1,0c-0.9,0.5-1.8,0.8-2.5,0.8c-0.5,0-1-0.1-1.4-0.4c-1.7-1-1.7-3.6-1.7-3.9V32.3l0-0.1c0.2-1.3,0.8-2.2,1.7-2.6c1.5-0.7,3.2,0.1,3.4,0.2l22.8,14.8l0.1,0c1.3,1,2,2.2,2,3.5C65,49.9,63.4,51.2,63.3,51.2z"/>
	</defs>
	<clipPath id="base_group">
		<use xlink:href="#base"/>
	</clipPath>
	<use xlink:href="#base" fill="#0A71FF"/>

	<g clip-path="url(#base_group)">
		<radialGradient id="Gradient1" cx="50%" cy="50%" r="50%">
			<stop offset="0" stop-color="#4FFBBC"/>
			<stop offset="1" stop-color="#00C5D4"/>
		</radialGradient>
		<linearGradient id="Gradient2" x1="0" y1="0" x2="100%" y2="0">
			<stop offset="0" stop-color="#3F79C6"/>
			<stop offset="1" stop-color="#00FFF4"/>
		</linearGradient>
		<radialGradient id="Gradient3" cx="50%" cy="50%" r="50%">
			<stop offset="0" stop-color="#0098E9"/>
			<stop offset="1" stop-color="#2AFFAE"/>
		</radialGradient>
		<circle fill="url(#Gradient1)" fill-opacity=".75" cx="96" cy="48" r="60"/>
		<circle fill="url(#Gradient2)" fill-opacity=".25" cx="30" cy="32" r="40"/>
		<circle fill="url(#Gradient3)" fill-opacity=".5" cx="48" cy="96" r="48"/>
	</g>
</svg>