<?xml version="1.0" encoding="UTF-8"?>
<svg width="24px" height="24px" viewBox="0 0 24 24" version="1.1" xmlns="http://www.w3.org/2000/svg" xmlns:xlink="http://www.w3.org/1999/xlink">
    <!-- Generator: Sketch 55.1 (78136) - https://sketchapp.com -->
    <title>card_active</title>
    <desc>Created with Sketch.</desc>
    <g id="图标切图20200305" stroke="none" stroke-width="1" fill="none" fill-rule="evenodd">
        <g id="Label-icons" transform="translate(-80.000000, -102.000000)" fill="#FF4500">
            <g id="Row2" transform="translate(17.000000, 100.000000)">
                <g id="icon/label/card_active" transform="translate(63.000000, 2.000000)">
                    <path d="M20,4 C21.11,4 22,4.89 22,6 L22,18 C22,19.11 21.11,20 20,20 L4,20 C2.89,20 2,19.11 2,18 L2.01,6 C2.01,4.89 2.89,4 4,4 L20,4 Z M4,8 L20,8 L20,6 L4,6 L4,8 Z M4,18 L20,18 L20,12 L4,12 L4,18 Z" id="card_active"></path>
                </g>
            </g>
        </g>
    </g>
</svg>