<?xml version="1.0" encoding="UTF-8"?>
<svg width="24px" height="24px" viewBox="0 0 24 24" version="1.1" xmlns="http://www.w3.org/2000/svg" xmlns:xlink="http://www.w3.org/1999/xlink">
    <!-- Generator: Sketch 55.1 (78136) - https://sketchapp.com -->
    <title>home_active</title>
    <desc>Created with Sketch.</desc>
    <g id="图标切图20200305" stroke="none" stroke-width="1" fill="none" fill-rule="evenodd">
        <g id="Label-icons" transform="translate(-17.000000, -102.000000)" fill="#FF4500">
            <g id="Row2" transform="translate(17.000000, 100.000000)">
                <g id="icon/label/home_active" transform="translate(0.000000, 2.000000)">
                    <path d="M6,18 L12,18 L12,14 L6,14 L6,18 Z M19.590098,7 C19.8284386,7 20.033646,7.16822983 20.0803884,7.40194193 L21,12 L21,13.5 C21,13.7761424 20.7761424,14 20.5,14 L20,14 L20,19.5 C20,19.7761424 19.7761424,20 19.5,20 L18.5,20 C18.2238576,20 18,19.7761424 18,19.5 L18,14 L14,14 L14,19.5 C14,19.7761424 13.7761424,20 13.5,20 L4.5,20 C4.22385763,20 4,19.7761424 4,19.5 L4,14 L3.5,14 C3.22385763,14 3,13.7761424 3,13.5 L3,12 L3.91961161,7.40194193 C3.96635403,7.16822983 4.17156144,7 4.40990195,7 L19.590098,7 Z M4.5,6 C4.22385763,6 4,5.77614237 4,5.5 L4,4.5 C4,4.22385763 4.22385763,4 4.5,4 L19.5,4 C19.7761424,4 20,4.22385763 20,4.5 L20,5.5 C20,5.77614237 19.7761424,6 19.5,6 L4.5,6 Z" id="home_active"></path>
                </g>
            </g>
        </g>
    </g>
</svg>