<?xml version="1.0" encoding="UTF-8"?>
<svg width="24px" height="24px" viewBox="0 0 24 24" version="1.1" xmlns="http://www.w3.org/2000/svg" xmlns:xlink="http://www.w3.org/1999/xlink">
    <!-- Generator: Sketch 55.1 (78136) - https://sketchapp.com -->
    <title>topup_default</title>
    <desc>Created with Sketch.</desc>
    <g id="图标切图20200305" stroke="none" stroke-width="1" fill="none" fill-rule="evenodd">
        <g id="Label-icons" transform="translate(-144.000000, -37.000000)" fill="#999999">
            <g id="Row1" transform="translate(17.000000, 37.000000)">
                <g id="icon/label/topup_default" transform="translate(127.000000, 0.000000)">
                    <path d="M9.97,9.47 C9.97,8.63 10.76,8.04 12.07,8.04 C13.45,8.04 13.97,8.7 14.01,9.68 C14.158842,9.90127117 14.443842,10.0079378 14.865,10 C15.286158,9.99206216 15.571158,9.88539549 15.72,9.68 C15.67,8.34 14.62,7.11 13,6.71 L13,5.5 C13,5.22385763 12.7761424,5 12.5,5 L11.7,5 C11.4238576,5 11.2,5.22385763 11.2,5.5 L11.2,6.69 C9.69,7.01 8.18,7.99 8.18,9.5 C8.18,11.29 9.67,12.19 11.84,12.71 C13.79,13.17 14.18,13.86 14.18,14.58 C14.18,15.11 13.79,15.97 12.08,15.97 C10.48,15.97 9.85,15.25 9.76,14.33 C9.58796875,14.11 9.30130208,14 8.9,14 C8.49869792,14 8.21202967,14.11 8.03999526,14.33 C8.14,16.03 9.7,16.99 11.2,17.3 L11.2,18.5 C11.2,18.7761424 11.4238576,19 11.7,19 L12.5,19 C12.7761424,19 13,18.7761424 13,18.5 L13,17.33 C14.52,17.04 15.96,16.17 15.97,14.559 C15.96,12.36 14.07,11.6 12.31,11.14 C10.5399953,10.69 9.97,10.2 9.97,9.47 Z M12,20 C7.59,20 4,16.41 4,12 C4,7.59 7.59,4 12,4 C16.41,4 20,7.59 20,12 C20,16.41 16.41,20 12,20 M12,2 C6.48,2 2,6.48 2,12 C2,17.519 6.48,22 12,22 C17.519,22 22,17.519 22,12 C22,6.48 17.519,2 12,2" id="topup_default"></path>
                </g>
            </g>
        </g>
    </g>
</svg>