<?xml version="1.0" encoding="UTF-8"?>
<svg width="48px" height="48px" viewBox="0 0 48 48" version="1.1" xmlns="http://www.w3.org/2000/svg" xmlns:xlink="http://www.w3.org/1999/xlink">
    <!-- Generator: Sketch 55.1 (78136) - https://sketchapp.com -->
    <title>cd_key</title>
    <desc>Created with Sketch.</desc>
    <g id="图标切图20200305" stroke="none" stroke-width="1" fill="none" fill-rule="evenodd">
        <g id="Color-icons" transform="translate(-120.000000, -44.000000)" fill-rule="nonzero">
            <g id="cd_key" transform="translate(120.000000, 44.000000)">
                <g transform="translate(2.000000, 8.000000)">
                    <path d="M0,28.2857143 C0,30.0142857 1.41428571,31.4285714 3.14285714,31.4285714 L40.8571429,31.4285714 C42.5857143,31.4285714 44,30.0142857 44,28.2857143 L44,12.5714286 L0,12.5714286 L0,28.2857143 Z M37.7142857,20.4285714 L39.8095238,20.4285714 L39.8095238,26.7142857 L37.7142857,26.7142857 L37.7142857,20.4285714 Z M35.6190476,20.4285714 L36.6666667,20.4285714 L36.6666667,26.7142857 L35.6190476,26.7142857 L35.6190476,20.4285714 Z M33.5238095,20.4285714 L34.5714286,20.4285714 L34.5714286,26.7142857 L33.5238095,26.7142857 L33.5238095,20.4285714 Z M30.3809524,20.4285714 L32.4761905,20.4285714 L32.4761905,26.7142857 L30.3809524,26.7142857 L30.3809524,20.4285714 Z M28.2857143,20.4285714 L29.3333333,20.4285714 L29.3333333,26.7142857 L28.2857143,26.7142857 L28.2857143,20.4285714 Z M25.1428571,20.4285714 L27.2380952,20.4285714 L27.2380952,26.7142857 L25.1428571,26.7142857 L25.1428571,20.4285714 Z M40.8571429,0 L3.14285714,0 C1.41428571,0 0,1.41428571 0,3.14285714 L0,9.42857143 L44,9.42857143 L44,3.14285714 C44,1.41428571 42.5857143,0 40.8571429,0 Z" id="base" fill="#FF8C00"></path>
                    <path d="M32.3002001,31.4285714 L3.14285714,31.4285714 C1.41428571,31.4285714 0,30.0142857 0,28.2857143 L0,12.5714286 L20.1903208,12.5714286 C23.3899424,15.213841 26.1336286,18.3886734 28.2857143,21.9602606 L28.2857143,26.7142857 L29.3333333,26.7142857 L29.3333333,23.819332 C29.7053006,24.526889 30.0548225,25.2480892 30.3809524,25.981986 L30.3809524,26.7142857 L30.6968259,26.7142857 C31.3337013,28.2363543 31.8708807,29.8105042 32.3002001,31.4285714 Z M15.7540251,9.42857143 L0,9.42857143 L0,4.323286 C5.72801667,4.80953495 11.0806678,6.6126062 15.7540251,9.42857143 Z M25.1428571,20.4285714 L25.1428571,26.7142857 L27.2380952,26.7142857 L27.2380952,20.4285714 L25.1428571,20.4285714 Z" id="clip" fill="#E57D00"></path>
                </g>
            </g>
        </g>
    </g>
</svg>