<?xml version="1.0" encoding="UTF-8"?>
<svg width="48px" height="48px" viewBox="0 0 48 48" version="1.1" xmlns="http://www.w3.org/2000/svg" xmlns:xlink="http://www.w3.org/1999/xlink">
    <!-- Generator: Sketch 55.1 (78136) - https://sketchapp.com -->
    <title>game_card</title>
    <desc>Created with Sketch.</desc>
    <g id="图标切图20200305" stroke="none" stroke-width="1" fill="none" fill-rule="evenodd">
        <g id="Color-icons" transform="translate(-32.000000, -44.000000)">
            <g id="game_card" transform="translate(32.000000, 44.000000)">
                <g transform="translate(2.000000, 8.000000)">
                    <path d="M0,28.2857143 L0,12.5714286 L44,12.5714286 L44,28.2857143 C44,30.0142857 42.5857143,31.4285714 40.8571429,31.4285714 L3.14285714,31.4285714 C1.41428571,31.4285714 0,30.0142857 0,28.2857143 Z M22,22.5238095 L22,24.6190476 C22,24.9333333 22.2095238,25.1428571 22.5238095,25.1428571 L37.1904762,25.1428571 C37.5047619,25.1428571 37.7142857,24.9333333 37.7142857,24.6190476 L37.7142857,22.5238095 C37.7142857,22.2095238 37.5047619,22 37.1904762,22 L22.5238095,22 C22.2095238,22 22,22.2095238 22,22.5238095 Z M40.8571429,0 C42.5857143,0 44,1.41428571 44,3.14285714 L44,9.42857143 L0,9.42857143 L0,3.14285714 C0,1.41428571 1.41428571,0 3.14285714,0 L40.8571429,0 Z" id="base" fill="#9400D3"></path>
                    <path d="M0,27.1052854 L0,12.5714286 L26.1931616,12.5714286 C20.0940266,20.6913835 10.7021947,26.1967806 3.93385324e-12,27.1052854 Z M28.3096253,9.42857143 L0,9.42857143 L0,3.14285714 C0,1.41428571 1.41428571,0 3.14285714,0 L32.3002001,0 C31.4097387,3.35607108 30.0552648,6.5232106 28.3096253,9.42857143 Z" id="clip" fill="#AE40DE"></path>
                </g>
            </g>
        </g>
    </g>
</svg>