<?xml version="1.0" encoding="UTF-8"?>
<svg width="48px" height="48px" viewBox="0 0 48 48" version="1.1" xmlns="http://www.w3.org/2000/svg" xmlns:xlink="http://www.w3.org/1999/xlink">
    <!-- Generator: Sketch 55.1 (78136) - https://sketchapp.com -->
    <title>game_console</title>
    <desc>Created with Sketch.</desc>
    <g id="图标切图20200305" stroke="none" stroke-width="1" fill="none" fill-rule="evenodd">
        <g id="Color-icons" transform="translate(-208.000000, -44.000000)">
            <g id="game_console" transform="translate(208.000000, 44.000000)">
                <g transform="translate(2.000000, 7.000000)">
                    <path d="M36.3255814,1.53488372 C40.5209302,4.34883721 44.8697674,17.2930233 43.4883721,27.1162791 C42.055814,37.1953488 36.6837209,32.5906977 35.3023256,31.2093023 C33.9209302,29.827907 31.5674419,24.0465116 30.1860465,24.0465116 C29.4697674,24.0465116 24.8651163,25.0697674 22,25.0697674 C19.1348837,25.0697674 14.5302326,24.0465116 13.8139535,24.0465116 C12.4325581,24.0465116 10.1302326,29.7767442 8.69767442,31.2093023 C7.26511628,32.6418605 1.94418605,37.1953488 0.511627907,27.1162791 C-0.869767442,17.2930233 3.47906977,4.34883721 7.6744186,1.53488372 C11.8697674,-1.27906977 16.2186047,0.869767442 18.4186047,3.06976744 C18.9813953,3.63255814 20.4139535,4.50232558 22,4.60465116 C23.5860465,4.45116279 25.0186047,3.63255814 25.5813953,3.06976744 C27.7813953,0.869767442 32.1302326,-1.22790698 36.3255814,1.53488372 Z M15.8604651,13.8139535 L15.8604651,10.744186 L12.7906977,10.744186 L12.7906977,7.6744186 L9.72093023,7.6744186 L9.72093023,10.744186 L6.65116279,10.744186 L6.65116279,13.8139535 L9.72093023,13.8139535 L9.72093023,16.8837209 L12.7906977,16.8837209 L12.7906977,13.8139535 L15.8604651,13.8139535 Z M32.744186,7.6744186 C31.8744186,7.6744186 31.2093023,8.33953488 31.2093023,9.20930233 C31.2093023,10.0790698 31.8744186,10.744186 32.744186,10.744186 C33.6139535,10.744186 34.2790698,10.0790698 34.2790698,9.20930233 C34.2790698,8.33953488 33.6139535,7.6744186 32.744186,7.6744186 Z M29.6744186,13.8139535 C30.544186,13.8139535 31.2093023,13.1488372 31.2093023,12.2790698 C31.2093023,11.4093023 30.544186,10.744186 29.6744186,10.744186 C28.8046512,10.744186 28.1395349,11.4093023 28.1395349,12.2790698 C28.1395349,13.1488372 28.8046512,13.8139535 29.6744186,13.8139535 Z M32.744186,16.8837209 C33.6139535,16.8837209 34.2790698,16.2186047 34.2790698,15.3488372 C34.2790698,14.4790698 33.6139535,13.8139535 32.744186,13.8139535 C31.8744186,13.8139535 31.2093023,14.4790698 31.2093023,15.3488372 C31.2093023,16.2186047 31.8744186,16.8837209 32.744186,16.8837209 Z M35.8139535,13.8139535 C36.6837209,13.8139535 37.3488372,13.1488372 37.3488372,12.2790698 C37.3488372,11.4093023 36.6837209,10.744186 35.8139535,10.744186 C34.944186,10.744186 34.2790698,11.4093023 34.2790698,12.2790698 C34.2790698,13.1488372 34.944186,13.8139535 35.8139535,13.8139535 Z" id="base" fill="#1E90FF"></path>
                    <path d="M40.4123898,33.2992762 C38.4168348,34.0450691 36.1348497,32.0418265 35.3023256,31.2093023 C33.9209302,29.827907 31.5674419,24.0465116 30.1860465,24.0465116 C29.4697674,24.0465116 24.8651163,25.0697674 22,25.0697674 C19.1348837,25.0697674 14.5302326,24.0465116 13.8139535,24.0465116 C12.4325581,24.0465116 10.1302326,29.7767442 8.69767442,31.2093023 C7.26511628,32.6418605 1.94418605,37.1953488 0.511627907,27.1162791 C-0.279763502,21.4886068 0.809542523,14.8366262 2.67324807,9.65191237 C3.30629308,8.78401001 3.95729934,8.108618 4.60465116,7.6744186 C8.8,4.86046512 13.1488372,7.00930233 15.3488372,9.20930233 C15.9116279,9.77209302 17.344186,10.6418605 18.9302326,10.744186 C20.5162791,10.5906977 21.9488372,9.77209302 22.5116279,9.20930233 C24.7116279,7.00930233 29.0604651,4.91162791 33.255814,7.6744186 C33.3604611,7.74460874 33.4652037,7.82110174 33.5699505,7.90369195 C33.3338866,7.75763586 33.051839,7.6744186 32.744186,7.6744186 C31.8744186,7.6744186 31.2093023,8.33953488 31.2093023,9.20930233 C31.2093023,10.0790698 31.8744186,10.744186 32.744186,10.744186 C33.6139535,10.744186 34.2790698,10.0790698 34.2790698,9.20930233 C34.2790698,8.81339003 34.1412571,8.45988164 33.9090611,8.19220661 C34.5901992,8.81388434 35.2673388,9.68445953 35.9153018,10.7472265 C35.8818522,10.7452088 35.8480602,10.744186 35.8139535,10.744186 C34.944186,10.744186 34.2790698,11.4093023 34.2790698,12.2790698 C34.2790698,13.1488372 34.944186,13.8139535 35.8139535,13.8139535 C36.3930397,13.8139535 36.8814076,13.5191194 37.1431583,13.0653505 C39.6501203,18.4648405 41.3572727,26.5808408 40.4186047,33.255814 C40.4165412,33.2703318 40.4144696,33.2848192 40.4123898,33.2992762 Z M15.8604651,13.8139535 L15.8604651,10.744186 L12.7906977,10.744186 L12.7906977,7.6744186 L9.72093023,7.6744186 L9.72093023,10.744186 L6.65116279,10.744186 L6.65116279,13.8139535 L9.72093023,13.8139535 L9.72093023,16.8837209 L12.7906977,16.8837209 L12.7906977,13.8139535 L15.8604651,13.8139535 Z M29.6744186,13.8139535 C30.544186,13.8139535 31.2093023,13.1488372 31.2093023,12.2790698 C31.2093023,11.4093023 30.544186,10.744186 29.6744186,10.744186 C28.8046512,10.744186 28.1395349,11.4093023 28.1395349,12.2790698 C28.1395349,13.1488372 28.8046512,13.8139535 29.6744186,13.8139535 Z M32.744186,16.8837209 C33.6139535,16.8837209 34.2790698,16.2186047 34.2790698,15.3488372 C34.2790698,14.4790698 33.6139535,13.8139535 32.744186,13.8139535 C31.8744186,13.8139535 31.2093023,14.4790698 31.2093023,15.3488372 C31.2093023,16.2186047 31.8744186,16.8837209 32.744186,16.8837209 Z" id="clip" fill="#56ABFF"></path>
                </g>
            </g>
        </g>
    </g>
</svg>