<?xml version="1.0" encoding="UTF-8"?>
<svg width="48px" height="48px" viewBox="0 0 48 48" version="1.1" xmlns="http://www.w3.org/2000/svg" xmlns:xlink="http://www.w3.org/1999/xlink">
    <!-- Generator: Sketch 55.1 (78136) - https://sketchapp.com -->
    <title>game_topup</title>
    <desc>Created with Sketch.</desc>
    <g id="图标切图20200305" stroke="none" stroke-width="1" fill="none" fill-rule="evenodd">
        <g id="Color-icons" transform="translate(-385.000000, -147.000000)" fill-rule="nonzero">
            <g id="game_topup" transform="translate(385.000000, 147.000000)">
                <g transform="translate(5.000000, 2.000000)">
                    <path d="M37.2976744,10.7953488 C37.6046512,10.9488372 37.8093023,11.3069767 37.8093023,11.6651163 L37.8093023,32.3860465 C37.8093023,32.744186 37.6046512,33.0511628 37.2976744,33.255814 L19.4418605,43.5906977 C19.1348837,43.7953488 18.7255814,43.7953488 18.4186047,43.5906977 L0.562790698,33.2046512 C0.255813953,33.0511628 0.0511627907,32.6930233 0.0511627907,32.3348837 L0.0511627907,11.6139535 C0.0511627907,11.255814 0.255813953,10.9488372 0.562790698,10.744186 L18.4186047,0.409302326 C18.7255814,0.204651163 19.1348837,0.204651163 19.4418605,0.409302326 L37.2976744,10.7953488 Z M18.9302326,32.2325581 L29.1627907,20.4651163 L24.0465116,14.8372093 L13.8139535,14.8372093 L8.69767442,20.4651163 L18.9302326,32.2325581 Z" id="base" fill="#FF8C00"></path>
                    <path d="M18.9302326,43.744186 C18.7511628,43.744186 18.572093,43.6930233 18.4186047,43.5906977 L0.562790698,33.2046512 C0.255813953,33.0511628 0.0511627907,32.6930233 0.0511627907,32.3348837 L0.0511627907,11.6139535 C0.0511627907,11.255814 0.255813953,10.9488372 0.562790698,10.744186 L18.4186047,0.409302326 C18.572093,0.306976744 18.7511628,0.255813953 18.9302326,0.255813953 L18.9302326,14.8372093 L13.8139535,14.8372093 L8.69767442,20.4651163 L18.9302326,32.2325581 L18.9302326,43.744186 Z" id="clip" fill="#E57D00"></path>
                </g>
            </g>
        </g>
    </g>
</svg>