<?xml version="1.0" encoding="UTF-8"?>
<svg width="48px" height="48px" viewBox="0 0 48 48" version="1.1" xmlns="http://www.w3.org/2000/svg" xmlns:xlink="http://www.w3.org/1999/xlink">
    <!-- Generator: Sketch 55.1 (78136) - https://sketchapp.com -->
    <title>gift_card</title>
    <desc>Created with Sketch.</desc>
    <g id="图标切图20200305" stroke="none" stroke-width="1" fill="none" fill-rule="evenodd">
        <g id="Color-icons" transform="translate(-297.000000, -44.000000)">
            <g id="gift_card" transform="translate(297.000000, 44.000000)">
                <g transform="translate(2.000000, 8.000000)">
                    <path d="M9.42857143,22 C7.7,22 6.28571429,20.5857143 6.28571429,18.8571429 C6.28571429,17.1285714 7.7,15.7142857 9.42857143,15.7142857 L0,15.7142857 L0,28.2857143 C0,30.0142857 1.41428571,31.4285714 3.14285714,31.4285714 L12.5714286,31.4285714 L12.5714286,18.8571429 C12.5714286,20.5857143 11.1571429,22 9.42857143,22 Z M40.8571429,0 L15.7142857,0 L15.7142857,9.42857143 C15.7142857,7.7 17.1285714,6.28571429 18.8571429,6.28571429 C20.5857143,6.28571429 22,7.7 22,9.42857143 C22,11.1571429 20.5857143,12.5714286 18.8571429,12.5714286 L44,12.5714286 L44,3.14285714 C44,1.41428571 42.5857143,0 40.8571429,0 Z M0,3.14285714 L0,12.5714286 L9.42857143,12.5714286 C7.7,12.5714286 6.28571429,11.1571429 6.28571429,9.42857143 C6.28571429,7.7 7.7,6.28571429 9.42857143,6.28571429 C11.1571429,6.28571429 12.5714286,7.7 12.5714286,9.42857143 L12.5714286,0 L3.14285714,0 C1.41428571,0 0,1.41428571 0,3.14285714 Z M22,18.8571429 C22,20.5857143 20.5857143,22 18.8571429,22 C17.1285714,22 15.7142857,20.5857143 15.7142857,18.8571429 L15.7142857,31.4285714 L40.8571429,31.4285714 C42.5857143,31.4285714 44,30.0142857 44,28.2857143 L44,15.7142857 L18.8571429,15.7142857 C20.5857143,15.7142857 22,17.1285714 22,18.8571429 Z" id="base" fill="#FF4500" fill-rule="nonzero"></path>
                    <path d="M30.3809524,12.5714286 L18.8571429,12.5714286 C20.5857143,12.5714286 22,11.1571429 22,9.42857143 C22,7.7 20.5857143,6.28571429 18.8571429,6.28571429 C17.1285714,6.28571429 15.7142857,7.7 15.7142857,9.42857143 L15.7142857,0 L27.0172858,0 C29.1565655,3.69817406 30.3809524,7.99181588 30.3809524,12.5714286 Z M30.1864292,15.7142857 C29.4089939,21.9488185 26.3489504,27.4744781 21.8689914,31.4285714 L15.7142857,31.4285714 L15.7142857,18.8571429 C15.7142857,20.5857143 17.1285714,22 18.8571429,22 C20.5857143,22 22,20.5857143 22,18.8571429 C22,17.1285714 20.5857143,15.7142857 18.8571429,15.7142857 L30.1864292,15.7142857 Z M9.42857143,22 C11.1571429,22 12.5714286,20.5857143 12.5714286,18.8571429 L12.5714286,31.4285714 L3.14285714,31.4285714 C1.41428571,31.4285714 0,30.0142857 0,28.2857143 L0,15.7142857 L9.42857143,15.7142857 C7.7,15.7142857 6.28571429,17.1285714 6.28571429,18.8571429 C6.28571429,20.5857143 7.7,22 9.42857143,22 Z M0,3.14285714 C0,1.41428571 1.41428571,0 3.14285714,0 L12.5714286,0 L12.5714286,9.42857143 C12.5714286,7.7 11.1571429,6.28571429 9.42857143,6.28571429 C7.7,6.28571429 6.28571429,7.7 6.28571429,9.42857143 C6.28571429,11.1571429 7.7,12.5714286 9.42857143,12.5714286 L0,12.5714286 L0,3.14285714 Z" id="clip" fill="#FF7340"></path>
                </g>
            </g>
        </g>
    </g>
</svg>