<?xml version="1.0" encoding="UTF-8"?>
<svg width="48px" height="48px" viewBox="0 0 48 48" version="1.1" xmlns="http://www.w3.org/2000/svg" xmlns:xlink="http://www.w3.org/1999/xlink">
    <!-- Generator: Sketch 55.1 (78136) - https://sketchapp.com -->
    <title>music</title>
    <desc>Created with Sketch.</desc>
    <g id="图标切图20200305" stroke="none" stroke-width="1" fill="none" fill-rule="evenodd">
        <g id="Color-icons" transform="translate(-32.000000, -147.000000)" fill-rule="nonzero">
            <g id="music" transform="translate(32.000000, 147.000000)">
                <g transform="translate(2.000000, 2.000000)">
                    <path d="M22,0 C34.152381,0 44,9.84761905 44,22 C44,34.152381 34.152381,44 22,44 C9.84761905,44 0,34.152381 0,22 C0,9.84761905 9.84761905,0 22,0 Z M29.8571429,11.2619048 L14.1428571,13.8809524 L14.1428571,26.2428571 C13.9857143,26.1904762 13.7761905,26.1904762 13.6190476,26.1904762 C11.5761905,26.1904762 9.95238095,27.8142857 9.95238095,29.8571429 C9.95238095,31.9 11.5761905,33.5238095 13.6190476,33.5238095 C15.6619048,33.5238095 17.2857143,31.9 17.2857143,29.8571429 L17.2857143,19.6428571 L26.7142857,18.0714286 L26.7142857,23.1 C26.5571429,23.047619 26.347619,23.047619 26.1904762,23.047619 C24.147619,23.047619 22.5238095,24.6714286 22.5238095,26.7142857 C22.5238095,28.7571429 24.147619,30.3809524 26.1904762,30.3809524 C28.2333333,30.3809524 29.8571429,28.7571429 29.8571429,26.7142857 L29.8571429,11.2619048 Z" id="base" fill="#FF4500"></path>
                    <path d="M33.9804439,40.4560171 C30.5335551,42.6977653 26.4191667,44 22,44 C9.84761905,44 0,34.152381 0,22 C0,17.5808333 1.30223468,13.4664449 3.54398286,10.0195561 C7.44674714,10.7178624 11.1414036,12.0165308 14.5289884,13.8165972 L14.1428571,13.8809524 L14.1428571,26.2428571 C13.9857143,26.1904762 13.7761905,26.1904762 13.6190476,26.1904762 C11.5761905,26.1904762 9.95238095,27.8142857 9.95238095,29.8571429 C9.95238095,31.9 11.5761905,33.5238095 13.6190476,33.5238095 C15.6619048,33.5238095 17.2857143,31.9 17.2857143,29.8571429 L17.2857143,19.6428571 L21.8346719,18.8846975 C23.288199,20.1704466 24.6417882,21.5666095 25.8823052,23.0600521 C23.9867061,23.2138122 22.5238095,24.7752881 22.5238095,26.7142857 C22.5238095,28.7571429 24.147619,30.3809524 26.1904762,30.3809524 C27.674786,30.3809524 28.9378696,29.523701 29.5176005,28.2713248 C31.6649108,31.9796075 33.198791,36.0874373 33.9804439,40.4560171 Z" id="clip" fill="#FF7340"></path>
                </g>
            </g>
        </g>
    </g>
</svg>