<?xml version="1.0" encoding="UTF-8"?>
<svg width="48px" height="48px" viewBox="0 0 48 48" version="1.1" xmlns="http://www.w3.org/2000/svg" xmlns:xlink="http://www.w3.org/1999/xlink">
    <!-- Generator: Sketch 55.1 (78136) - https://sketchapp.com -->
    <title>novice</title>
    <desc>Created with Sketch.</desc>
    <g id="图标切图20200305" stroke="none" stroke-width="1" fill="none" fill-rule="evenodd">
        <g id="Color-icons" transform="translate(-208.000000, -147.000000)" fill-rule="nonzero">
            <g id="novice" transform="translate(208.000000, 147.000000)">
                <g transform="translate(4.000000, 2.000000)">
                    <path d="M35.4046512,27.0139535 C34.227907,28.6511628 33.0511628,30.0837209 32.8465116,31.7209302 C32.1813953,34.4325581 32.5906977,37.2976744 34.0232558,39.7023256 C34.2790698,40.1627907 34.2790698,40.6744186 34.0232558,41.0837209 C33.8186047,41.5953488 33.3581395,41.9534884 32.8465116,42.0046512 C29.4697674,43.1813953 25.8883721,43.8465116 22.3069767,43.8976744 C19.5953488,43.9488372 16.8837209,43.5395349 14.3255814,42.7209302 C13.4046512,42.2604651 12.6883721,41.544186 12.6883721,40.3674419 L12.6883721,39.1906977 C12.6883721,37.8093023 12.227907,37.2976744 10.7953488,37.2976744 C10.4883721,37.2465116 10.1302326,37.3488372 9.8744186,37.5534884 C9.41395349,37.5534884 8.69767442,37.8093023 7.98139535,37.8093023 C5.42325581,37.8093023 3.78604651,36.3767442 3.78604651,34.0744186 L3.78604651,32.6930233 C3.78604651,30.8 3.78604651,27.7813953 3.06976744,27.5255814 C2.86511628,27.372093 2.60930233,27.2697674 2.35348837,27.2697674 C2.09767442,27.2697674 1.6372093,27.0139535 1.43255814,27.0139535 L0.255813953,25.8372093 C2.45359288e-14,25.3255814 2.45359288e-14,24.7116279 0.255813953,24.2 C0.71627907,22.7674419 2.14883721,20.9255814 3.06976744,19.4930233 C3.53023256,19.0837209 3.93953488,18.6232558 4.24651163,18.1116279 C4.45116279,17.9581395 4.50232558,17.7023256 4.34883721,17.4976744 C4.34883721,17.4465116 4.29767442,17.4465116 4.24651163,17.3953488 C3.3255814,14.8372093 3.78604651,11.5627907 5.67906977,8.74883721 C7.93023256,4.9627907 11.5116279,2.09767442 15.7581395,0.76744186 C17.6511628,0.306976744 19.6465116,0.0511627907 21.5906977,0.0511627907 C24.4046512,0.0511627907 28.6,0.511627907 32.3860465,2.60930233 C36.0186047,4.50232558 38.5767442,7.98139535 39.3953488,11.972093 C40.9813953,19.8 37.9627907,23.9953488 35.4046512,27.0139535 Z M21.8976744,30.544186 C22.8697674,30.544186 23.6372093,29.7767442 23.6372093,28.8046512 C23.6372093,27.8325581 22.8697674,27.0651163 21.8976744,27.0651163 C20.9255814,27.0651163 20.1581395,27.8325581 20.1581395,28.8046512 C20.1581395,29.7767442 20.9255814,30.544186 21.8976744,30.544186 Z M23.3813953,24.8139535 C22.7674419,20.3627907 28.7023256,19.5953488 28.7023256,15.0418605 C28.8046512,11.4093023 26.2465116,9.3627907 22.5116279,9.3627907 C19.6465116,9.3627907 17.4976744,10.6930233 15.7581395,12.5860465 C15.5023256,12.8418605 15.4,13.2 15.3488372,13.5581395 C15.2976744,14.3255814 15.8604651,14.9395349 16.5767442,14.9906977 L16.6790698,14.9906977 C17.344186,14.9395349 17.4465116,14.6837209 17.855814,14.2744186 C18.8790698,12.9953488 20.4139535,12.2790698 22.0511628,12.2790698 C24.2511628,12.2790698 25.3767442,13.5581395 25.3767442,15.3488372 C25.3767442,18.6232558 19.4930233,19.9023256 20.3116279,24.8139535 L23.3813953,24.8139535 Z" id="base" fill="#1E90FF"></path>
                    <path d="M9.83905489,37.5539694 C12.1244256,28.7285345 17.6903725,21.2237979 25.1580199,16.4186356 C24.0994736,18.9696905 19.5881765,20.4732451 20.3116279,24.8139535 L23.3813953,24.8139535 C22.7674419,20.3627907 28.7023256,19.5953488 28.7023256,15.0418605 C28.7083384,14.8284064 28.7051648,14.6204288 28.6931061,14.4180211 C31.946194,12.8138897 35.478052,11.6891075 39.1964622,11.1358921 C39.2712518,11.4118306 39.3376251,11.6906898 39.3953488,11.972093 C40.9813953,19.8 37.9627907,23.9953488 35.4046512,27.0139535 C34.227907,28.6511628 33.0511628,30.0837209 32.8465116,31.7209302 C32.1813953,34.4325581 32.5906977,37.2976744 34.0232558,39.7023256 C34.2790698,40.1627907 34.2790698,40.6744186 34.0232558,41.0837209 C33.8186047,41.5953488 33.3581395,41.9534884 32.8465116,42.0046512 C29.4697674,43.1813953 25.8883721,43.8465116 22.3069767,43.8976744 C19.5953488,43.9488372 16.8837209,43.5395349 14.3255814,42.7209302 C13.4046512,42.2604651 12.6883721,41.544186 12.6883721,40.3674419 L12.6883721,39.1906977 C12.6883721,37.8093023 12.227907,37.2976744 10.7953488,37.2976744 C10.4883721,37.2465116 10.1302326,37.3488372 9.8744186,37.5534884 C9.86279241,37.5534884 9.85100313,37.5536515 9.83905489,37.5539694 Z M21.8976744,30.544186 C22.8697674,30.544186 23.6372093,29.7767442 23.6372093,28.8046512 C23.6372093,27.8325581 22.8697674,27.0651163 21.8976744,27.0651163 C20.9255814,27.0651163 20.1581395,27.8325581 20.1581395,28.8046512 C20.1581395,29.7767442 20.9255814,30.544186 21.8976744,30.544186 Z" id="clip" fill="#56ABFF"></path>
                </g>
            </g>
        </g>
    </g>
</svg>