<?xml version="1.0" encoding="UTF-8"?>
<svg width="48px" height="48px" viewBox="0 0 48 48" version="1.1" xmlns="http://www.w3.org/2000/svg" xmlns:xlink="http://www.w3.org/1999/xlink">
    <!-- Generator: Sketch 55.1 (78136) - https://sketchapp.com -->
    <title>popular</title>
    <desc>Created with Sketch.</desc>
    <g id="图标切图20200305" stroke="none" stroke-width="1" fill="none" fill-rule="evenodd">
        <g id="Color-icons" transform="translate(-561.000000, -44.000000)" fill-rule="nonzero">
            <g id="popular" transform="translate(561.000000, 44.000000)">
                <g transform="translate(5.000000, 2.000000)">
                    <path d="M37.4351351,10.7953488 C37.7432432,10.9488372 37.9486486,11.3069767 37.9486486,11.6651163 L37.9486486,32.3860465 C37.9486486,32.744186 37.7432432,33.0511628 37.4351351,33.255814 L19.5135135,43.5906977 C19.2054054,43.7953488 18.7945946,43.7953488 18.4864865,43.5906977 L0.564864865,33.2046512 C0.256756757,33.0511628 0.0513513514,32.6930233 0.0513513514,32.3348837 L0.0513513514,11.6139535 C0.0513513514,11.255814 0.256756757,10.9488372 0.564864865,10.744186 L18.4864865,0.409302326 C18.7945946,0.204651163 19.2054054,0.204651163 19.5135135,0.409302326 L37.4351351,10.7953488 Z M10.6810811,30.1860465 L12.9918919,30.1860465 L12.9918919,18.8790698 L10.9378378,18.8790698 C10.1162162,18.8790698 9.80810811,19.3906977 9.80810811,19.9534884 L9.80810811,29.3162791 C9.80810811,29.8790698 10.0135135,30.1860465 10.6810811,30.1860465 Z M26.0351351,29.0604651 L28.2945946,20.5674419 C28.2945946,19.4418605 27.3189189,18.4697674 26.1891892,18.4697674 L20.4891892,18.4697674 C20.2324324,18.4697674 20.3351351,18.3674419 20.7459459,17.3953488 C21.0540541,16.7302326 21.3108108,16.0139535 21.3108108,15.3488372 C21.3108108,13.7116279 20.3864865,11.7674419 19.1027027,11.7674419 C16.7918919,11.8697674 17.1513514,13.1488372 16.6378378,14.7860465 C16.3810811,16.1674419 15.7648649,17.4465116 14.6864865,18.4186047 C14.4297297,18.5209302 14.327027,18.5209302 14.172973,18.6744186 L14.172973,30.1348837 L24.2891892,30.1348837 C24.6486486,30.1348837 25.0594595,30.0325581 25.3675676,29.8790698 C25.727027,29.7255814 25.9324324,29.3674419 26.0351351,29.0604651 Z" id="base" fill="#FF4500"></path>
                    <path d="M19,43.744186 L19,30.1348837 L24.2891892,30.1348837 C24.6486486,30.1348837 25.0594595,30.0325581 25.3675676,29.8790698 C25.727027,29.7255814 25.9324324,29.3674419 26.0351351,29.0604651 L28.2945946,20.5674419 C28.2945946,19.4418605 27.3189189,18.4697674 26.1891892,18.4697674 L20.4891892,18.4697674 C20.2324324,18.4697674 20.3351351,18.3674419 20.7459459,17.3953488 C21.0540541,16.7302326 21.3108108,16.0139535 21.3108108,15.3488372 C21.3108108,13.7116279 20.3864865,11.7674419 19.1027027,11.7674419 C19.0678656,11.7689845 19.0336354,11.7707946 19,11.7728693 L19,0.255813953 C19.1797297,0.255813953 19.3594595,0.306976744 19.5135135,0.409302326 L37.4351351,10.7953488 C37.7432432,10.9488372 37.9486486,11.3069767 37.9486486,11.6651163 L37.9486486,32.3860465 C37.9486486,32.744186 37.7432432,33.0511628 37.4351351,33.255814 L19.5135135,43.5906977 C19.3594595,43.6930233 19.1797297,43.744186 19,43.744186 Z" id="clip" fill="#FF7340"></path>
                </g>
            </g>
        </g>
    </g>
</svg>