<?xml version="1.0" encoding="UTF-8"?>
<svg width="48px" height="48px" viewBox="0 0 48 48" version="1.1" xmlns="http://www.w3.org/2000/svg" xmlns:xlink="http://www.w3.org/1999/xlink">
    <!-- Generator: Sketch 55.1 (78136) - https://sketchapp.com -->
    <title>recharge </title>
    <desc>Created with Sketch.</desc>
    <g id="图标切图20200305" stroke="none" stroke-width="1" fill="none" fill-rule="evenodd">
        <g id="Color-icons" transform="translate(-385.000000, -44.000000)" fill-rule="nonzero">
            <g id="recharge" transform="translate(385.000000, 44.000000)">
                <g transform="translate(10.000000, 2.000000)">
                    <path d="M24.6772487,0 C26.3738095,0 27.7619048,1.41428571 27.7619048,3.14285714 L27.7619048,40.8571429 C27.7619048,42.5857143 26.3738095,44 24.6772487,44 L3.08465608,44 C1.38809524,44 2.84217094e-14,42.5857143 2.84217094e-14,40.8571429 L2.84217094e-14,3.14285714 C2.84217094e-14,1.41428571 1.38809524,0 3.08465608,0 L24.6772487,0 Z M13.8809524,39.2857143 C14.7549383,39.2857143 15.4232804,38.6047619 15.4232804,37.7142857 C15.4232804,36.8238095 14.7549383,36.1428571 13.8809524,36.1428571 C13.0069665,36.1428571 12.3386243,36.8238095 12.3386243,37.7142857 C12.3386243,38.6047619 13.0069665,39.2857143 13.8809524,39.2857143 Z M18.8164021,26.2952381 C19.1248677,25.7714286 19.2791005,25.0904762 19.2791005,24.3047619 C19.2791005,23.1 18.919224,22.1047619 18.2508818,21.3714286 C17.5825397,20.6380952 16.6057319,20.0619048 15.3718695,19.6428571 L14.4464727,19.3285714 C13.6238977,19.0142857 13.0583774,18.7 12.6985009,18.4380952 C12.3386243,18.1761905 12.1843915,17.8095238 12.1843915,17.4428571 C12.1843915,17.0761905 12.3386243,16.7619048 12.6470899,16.552381 C12.9555556,16.2904762 13.366843,16.1857143 13.9323633,16.1857143 C14.4464727,16.1857143 14.9091711,16.2904762 15.2176367,16.6047619 C15.5261023,16.9190476 15.783157,17.2333333 15.9373898,17.7047619 L18.7135802,16.5 C18.6107584,16.1333333 18.4051146,15.7142857 18.1994709,15.347619 C17.9424162,14.9809524 17.6339506,14.6142857 17.2740741,14.3 C16.9141975,13.9857143 16.4514991,13.7238095 15.8859788,13.5142857 L15.4232804,13.3571429 L15.4232804,11.7333333 L12.3386243,11.7333333 L12.3386243,13.4095238 C12.1843915,13.4095238 12.0815697,13.4619048 11.9273369,13.5142857 C11.3104056,13.7238095 10.7962963,14.0380952 10.3850088,14.4047619 C9.97372134,14.7714286 9.66525573,15.2428571 9.40820106,15.7666667 C9.15114638,16.2904762 9.04832451,16.8666667 9.04832451,17.4428571 C9.04832451,18.0190476 9.15114638,18.4904762 9.35679012,18.9619048 C9.56243386,19.4333333 9.87089947,19.8 10.1793651,20.1666667 C10.4878307,20.5333333 10.8477072,20.7952381 11.2589947,21.0571429 C11.6702822,21.3190476 12.0815697,21.4761905 12.4414462,21.6333333 L13.366843,21.947619 C13.8809524,22.1571429 14.2922399,22.3666667 14.6521164,22.5238095 C15.0119929,22.6809524 15.2690476,22.8904762 15.4746914,23.047619 C15.6803351,23.2571429 15.8345679,23.4142857 15.9373898,23.6238095 C16.0402116,23.8333333 16.0916226,24.0428571 16.0916226,24.3047619 C16.0916226,24.5666667 16.0402116,24.7761905 15.9373898,24.9333333 C15.8345679,25.1428571 15.6803351,25.3 15.5261023,25.4047619 C15.3204586,25.5095238 15.1148148,25.6142857 14.9091711,25.6666667 C14.6521164,25.7190476 14.4464727,25.7714286 14.189418,25.7714286 C13.418254,25.7714286 12.8527337,25.5619048 12.4414462,25.0904762 C12.0301587,24.6190476 11.7216931,24.0428571 11.5674603,23.3095238 L8.53421517,24.5142857 C8.94550265,25.8761905 9.66525573,26.9761905 10.6420635,27.7095238 C11.2075838,28.1285714 11.7731041,28.3904762 12.3900353,28.6 L12.3900353,30.5380952 L15.4746914,30.5380952 L15.4746914,28.7047619 C15.6289242,28.652381 15.8345679,28.6 15.9888007,28.547619 C16.6057319,28.3904762 17.1712522,28.0761905 17.6339506,27.7095238 C18.096649,27.3428571 18.5079365,26.8714286 18.8164021,26.2952381 Z" id="base" fill="#1E90FF"></path>
                    <path d="M24.6772487,5.68434189e-14 L3.08465608,5.68434189e-14 C1.38809524,5.68434189e-14 -5.68434189e-14,1.41428571 -5.68434189e-14,3.14285714 L-5.68434189e-14,40.8571429 C-5.68434189e-14,42.5857143 1.38809524,44 3.08465608,44 L24.6772487,44 C26.3738095,44 27.7619048,42.5857143 27.7619048,40.8571429 L27.7619048,3.14285714 C27.7619048,1.41428571 26.3738095,5.68434189e-14 24.6772487,5.68434189e-14 Z M24.6772487,39.2857143 C24.6772487,40.1761905 24.0089065,40.8571429 23.1349206,40.8571429 L4.62698413,40.8571429 C3.75299824,40.8571429 3.08465608,40.1761905 3.08465608,39.2857143 L3.08465608,4.71428571 C3.08465608,3.82380952 3.75299824,3.14285714 4.62698413,3.14285714 L23.1349206,3.14285714 C24.0089065,3.14285714 24.6772487,3.82380952 24.6772487,4.71428571 L24.6772487,39.2857143 Z" id="border" fill-opacity="0.1" fill="#FFFFFF"></path>
                    <path d="M6.68342152,44 L3.08465608,44 C1.38809524,44 5.68434189e-14,42.5857143 5.68434189e-14,40.8571429 L5.68434189e-14,3.14285714 C5.68434189e-14,1.41428571 1.38809524,0 3.08465608,0 L21.0784832,0 L16.5590994,13.8139658 C16.3537768,13.7043672 16.1294033,13.6044739 15.8859788,13.5142857 L15.4232804,13.3571429 L15.4232804,11.7333333 L12.3386243,11.7333333 L12.3386243,13.4095238 C12.1843915,13.4095238 12.0815697,13.4619048 11.9273369,13.5142857 C11.3104056,13.7238095 10.7962963,14.0380952 10.3850088,14.4047619 C9.97372134,14.7714286 9.66525573,15.2428571 9.40820106,15.7666667 C9.15114638,16.2904762 9.04832451,16.8666667 9.04832451,17.4428571 C9.04832451,18.0190476 9.15114638,18.4904762 9.35679012,18.9619048 C9.56243386,19.4333333 9.87089947,19.8 10.1793651,20.1666667 C10.4878307,20.5333333 10.8477072,20.7952381 11.2589947,21.0571429 C11.6702822,21.3190476 12.0815697,21.4761905 12.4414462,21.6333333 L13.366843,21.947619 C13.5321352,22.0149834 13.6867986,22.0823477 13.832542,22.1479712 L12.7717971,25.3902483 C12.6519447,25.3054921 12.5420787,25.2058238 12.4414462,25.0904762 C12.0301587,24.6190476 11.7216931,24.0428571 11.5674603,23.3095238 L8.53421517,24.5142857 C8.94550265,25.8761905 9.66525573,26.9761905 10.6420635,27.7095238 C11.021569,27.9907354 11.4010744,28.2011794 11.7961168,28.372516 L6.68342152,44 Z M15.5313783,16.9553021 L14.7240917,19.4228571 L14.4464727,19.3285714 C13.6238977,19.0142857 13.0583774,18.7 12.6985009,18.4380952 C12.3386243,18.1761905 12.1843915,17.8095238 12.1843915,17.4428571 C12.1843915,17.0761905 12.3386243,16.7619048 12.6470899,16.552381 C12.9555556,16.2904762 13.366843,16.1857143 13.9323633,16.1857143 C14.4464727,16.1857143 14.9091711,16.2904762 15.2176367,16.6047619 C15.3298449,16.7190873 15.4352503,16.8334127 15.5313783,16.9553021 Z" id="clip" fill="#FFFFFF" opacity="0.200000003"></path>
                </g>
            </g>
        </g>
    </g>
</svg>