<?xml version="1.0" encoding="UTF-8"?>
<svg width="48px" height="48px" viewBox="0 0 48 48" version="1.1" xmlns="http://www.w3.org/2000/svg" xmlns:xlink="http://www.w3.org/1999/xlink">
    <!-- Generator: Sketch 55.1 (78136) - https://sketchapp.com -->
    <title>shopping_cart</title>
    <desc>Created with Sketch.</desc>
    <g id="图标切图20200305" stroke="none" stroke-width="1" fill="none" fill-rule="evenodd">
        <g id="Color-icons" transform="translate(-473.000000, -44.000000)" fill-rule="nonzero">
            <g id="shopping_cart" transform="translate(473.000000, 44.000000)">
                <g transform="translate(2.000000, 5.000000)">
                    <path d="M32.5925926,26 L16.2962963,26 L15.2098765,28.1666667 C15.2098765,28.7625 15.6987654,29.25 16.2962963,29.25 L34.2222222,29.25 C36.9382716,29.25 39.1111111,31.4166667 39.1111111,34.125 C39.1111111,36.8333333 36.9382716,39 34.2222222,39 C31.5061728,39 29.3333333,36.8333333 29.3333333,34.125 C29.3333333,33.5291667 29.4419753,32.9875 29.6049383,32.5 L16.0246914,32.5 C16.1876543,32.9875 16.2962963,33.5291667 16.2962963,34.125 C16.2962963,36.8333333 14.1234568,39 11.4074074,39 C8.69135802,39 6.51851852,36.8333333 6.51851852,34.125 C6.51851852,31.9583333 7.87654321,30.1708333 9.77777778,29.5208333 L9.77777778,29.25 C9.77777778,28.6 9.99506173,28.0041667 10.3209877,27.4625 L13.037037,22.75 L3.25925926,3.25 L0,3.25 L0,0 L6.51851852,0 L9.77777778,6.5 L40.7407407,6.5 C42.5333333,6.5 44,7.9625 44,9.75 C44,10.3458333 43.837037,10.8875 43.5654321,11.375 L35.417284,24.375 C34.8197531,25.35 33.7876543,26 32.5925926,26 Z M35.8518519,34.125 C35.8518519,33.2041667 35.145679,32.5 34.2222222,32.5 C33.2987654,32.5 32.5925926,33.2041667 32.5925926,34.125 C32.5925926,35.0458333 33.2987654,35.75 34.2222222,35.75 C35.145679,35.75 35.8518519,35.0458333 35.8518519,34.125 Z M11.4074074,35.75 C12.3308642,35.75 13.037037,35.0458333 13.037037,34.125 C13.037037,33.2041667 12.3308642,32.5 11.4074074,32.5 C10.4839506,32.5 9.77777778,33.2041667 9.77777778,34.125 C9.77777778,35.0458333 10.4839506,35.75 11.4074074,35.75 Z" id="base" fill="#9400D3"></path>
                    <path d="M11.4207745,38.9999825 C11.6224587,37.8358437 11.8773782,36.6898838 12.1829426,35.5646857 C12.6981673,35.2967972 13.037037,34.7628843 13.037037,34.125 C13.037037,33.8452316 12.9718522,33.585463 12.8551934,33.3593662 C17.3728144,20.0222651 29.1283907,10.0090563 43.4618264,7.96659666 C43.8017056,8.47942533 44,9.09274255 44,9.75 C44,10.3458333 43.837037,10.8875 43.5654321,11.375 L35.417284,24.375 C34.8197531,25.35 33.7876543,26 32.5925926,26 L16.2962963,26 L15.2098765,28.1666667 C15.2098765,28.7625 15.6987654,29.25 16.2962963,29.25 L34.2222222,29.25 C36.9382716,29.25 39.1111111,31.4166667 39.1111111,34.125 C39.1111111,36.8333333 36.9382716,39 34.2222222,39 C31.5061728,39 29.3333333,36.8333333 29.3333333,34.125 C29.3333333,33.5291667 29.4419753,32.9875 29.6049383,32.5 L16.0246914,32.5 C16.1876543,32.9875 16.2962963,33.5291667 16.2962963,34.125 C16.2962963,36.8288888 14.1305824,38.9928874 11.4207745,38.9999825 Z M35.8518519,34.125 C35.8518519,33.2041667 35.145679,32.5 34.2222222,32.5 C33.2987654,32.5 32.5925926,33.2041667 32.5925926,34.125 C32.5925926,35.0458333 33.2987654,35.75 34.2222222,35.75 C35.145679,35.75 35.8518519,35.0458333 35.8518519,34.125 Z" id="clip" fill="#AE40DE"></path>
                </g>
            </g>
        </g>
    </g>
</svg>