<?xml version="1.0" encoding="UTF-8"?>
<svg width="48px" height="48px" viewBox="0 0 48 48" version="1.1" xmlns="http://www.w3.org/2000/svg" xmlns:xlink="http://www.w3.org/1999/xlink">
    <!-- Generator: Sketch 55.1 (78136) - https://sketchapp.com -->
    <title>software</title>
    <desc>Created with Sketch.</desc>
    <defs>
        <path d="M22,44 L22,26.7142857 C24.6190476,26.7142857 26.7142857,24.6190476 26.7142857,22 C26.7142857,19.3809524 24.6190476,17.2857143 22,17.2857143 L22,-3.55271368e-15 C34.152381,0 44,9.84761905 44,22 C44,34.152381 34.152381,44 22,44 Z M25.4571429,40.5428571 C27.9714286,40.0714286 30.3285714,39.0761905 32.3714286,37.7142857 L26.2952381,28.6 C25.4571429,29.1761905 24.4619048,29.5428571 23.4142857,29.752381 L25.4571429,40.5428571 Z M29.8571429,22.4714286 L40.8047619,23.152381 C40.8571429,22.7333333 40.8571429,22.3666667 40.8571429,22 C40.8571429,12.7809524 34.2047619,5.08095238 25.5095238,3.50952381 L23.4666667,14.3 C27.0809524,14.9809524 29.8571429,18.1761905 29.8571429,22 C29.8571429,22.1571429 29.8571429,22.3142857 29.8571429,22.4714286 Z" id="path-1"></path>
    </defs>
    <g id="图标切图20200305" stroke="none" stroke-width="1" fill="none" fill-rule="evenodd">
        <g id="Color-icons" transform="translate(-120.000000, -147.000000)">
            <g id="software" transform="translate(120.000000, 147.000000)">
                <g transform="translate(2.000000, 2.000000)">
                    <path d="M22,0 C34.152381,0 44,9.84761905 44,22 C44,34.152381 34.152381,44 22,44 C9.84761905,44 0,34.152381 0,22 C0,9.84761905 9.84761905,0 22,0 Z M26.7142857,22 C26.7142857,19.3809524 24.6190476,17.2857143 22,17.2857143 C19.3809524,17.2857143 17.2857143,19.3809524 17.2857143,22 C17.2857143,24.6190476 19.3809524,26.7142857 22,26.7142857 C24.6190476,26.7142857 26.7142857,24.6190476 26.7142857,22 Z M18.5428571,3.45714286 C16.0285714,3.92857143 13.6714286,4.92380952 11.6285714,6.28571429 L17.7047619,15.4 C18.5428571,14.8238095 19.5380952,14.4571429 20.5857143,14.247619 L18.5428571,3.45714286 Z M19.3809524,40.647619 C19.0666667,40.647619 18.8047619,40.5952381 18.5428571,40.4904762 L20.5857143,29.7 C16.9714286,29.0190476 14.1952381,25.8238095 14.1952381,22 C14.1952381,21.8428571 14.1952381,21.6857143 14.1952381,21.5285714 L3.1952381,20.847619 C3.14285714,21.2666667 3.14285714,21.6333333 3.14285714,22 C3.14285714,31.5333333 10.2142857,39.3904762 19.3809524,40.647619 Z M25.4571429,40.5428571 C27.9714286,40.0714286 30.3285714,39.0761905 32.3714286,37.7142857 L26.2952381,28.6 C25.4571429,29.1761905 24.4619048,29.5428571 23.4142857,29.752381 L25.4571429,40.5428571 Z M29.8571429,22.4714286 L40.8047619,23.152381 C40.8571429,22.7333333 40.8571429,22.3666667 40.8571429,22 C40.8571429,12.7809524 34.2047619,5.08095238 25.5095238,3.50952381 L23.4666667,14.3 C27.0809524,14.9809524 29.8571429,18.1761905 29.8571429,22 C29.8571429,22.1571429 29.8571429,22.3142857 29.8571429,22.4714286 Z" id="base" fill="#008000" fill-rule="nonzero"></path>
                    <mask id="mask-2" fill="white">
                        <use xlink:href="#path-1"></use>
                    </mask>
                    <use id="clip" fill="#409F40" xlink:href="#path-1"></use>
                </g>
            </g>
        </g>
    </g>
</svg>