<?xml version="1.0" encoding="UTF-8"?>
<svg width="48px" height="48px" viewBox="0 0 48 48" version="1.1" xmlns="http://www.w3.org/2000/svg" xmlns:xlink="http://www.w3.org/1999/xlink">
    <!-- Generator: Sketch 55.1 (78136) - https://sketchapp.com -->
    <title>tools</title>
    <desc>Created with Sketch.</desc>
    <defs>
        <path d="M21.6986301,18.0821918 L30.739726,18.0821918 L30.739726,12.0547945 C30.739726,12.0547945 27.1232877,10.2465753 27.1232877,7.23287671 C27.1232877,5.42465753 27.1232877,7.23287671 27.1232877,5.42465753 C27.1232877,2.4109589 30.739726,0 30.739726,0 L30.739726,7.23287671 L33.4520548,9.04109589 L36.1643836,7.23287671 L36.1643836,0 C36.1643836,0 39.7808219,2.4109589 39.7808219,5.42465753 C39.7808219,7.23287671 39.7808219,5.42465753 39.7808219,7.23287671 C39.7808219,10.2465753 36.1643836,12.0547945 36.1643836,12.0547945 L36.1643836,18.0821918 C36.1643836,18.0821918 40.0219178,18.0821918 41.5890411,18.0821918 C42.7945205,18.0821918 43.3972603,18.6849315 43.3972603,19.890411 C43.3972603,21.6986301 43.4575342,25.3150685 43.3972603,27.1232877 C43.3972603,28.3287671 42.7945205,28.9315068 41.5890411,28.9315068 L21.6986301,28.9315068 L21.6986301,18.0821918 Z M21.6986301,43.3972603 L21.6986301,32.5479452 L41.5890411,32.5479452 C42.7945205,32.5479452 43.3972603,33.1506849 43.3972603,34.3561644 C43.3972603,35.5616438 43.3972603,40.3835616 43.3972603,41.5890411 C43.3972603,42.7945205 42.7945205,43.3972603 41.5890411,43.3972603 L21.6986301,43.3972603 Z M37.9726027,21.6986301 C36.9479452,21.6986301 36.1643836,22.4821918 36.1643836,23.5068493 C36.1643836,24.5315068 36.9479452,25.3150685 37.9726027,25.3150685 C38.9972603,25.3150685 39.7808219,24.5315068 39.7808219,23.5068493 C39.7808219,22.4821918 38.9972603,21.6986301 37.9726027,21.6986301 Z M37.9726027,36.1643836 C36.9479452,36.1643836 36.1643836,36.9479452 36.1643836,37.9726027 C36.1643836,38.9972603 36.9479452,39.7808219 37.9726027,39.7808219 C38.9972603,39.7808219 39.7808219,38.9972603 39.7808219,37.9726027 C39.7808219,36.9479452 38.9972603,36.1643836 37.9726027,36.1643836 Z" id="path-1"></path>
    </defs>
    <g id="图标切图20200305" stroke="none" stroke-width="1" fill="none" fill-rule="evenodd">
        <g id="Color-icons" transform="translate(-473.000000, -147.000000)">
            <g id="tools" transform="translate(473.000000, 147.000000)">
                <g transform="translate(2.000000, 2.000000)">
                    <path d="M14.4657534,6.63013699 L16.2739726,6.63013699 C16.2739726,6.63013699 16.2739726,8.43835616 18.0821918,8.43835616 C19.890411,8.43835616 19.890411,6.63013699 19.890411,6.63013699 L19.890411,3.01369863 C19.890411,3.01369863 19.890411,1.20547945 18.0821918,1.20547945 C16.2739726,1.20547945 16.2739726,3.01369863 16.2739726,3.01369863 L14.4657534,3.01369863 L13.260274,1.20547945 L5.42465753,1.20547945 L0,8.43835616 L13.260274,8.43835616 L14.4657534,6.63013699 Z M36.1643836,12.0547945 C36.1643836,12.0547945 39.7808219,10.2465753 39.7808219,7.23287671 C39.7808219,5.42465753 39.7808219,7.23287671 39.7808219,5.42465753 C39.7808219,2.4109589 36.1643836,0 36.1643836,0 L36.1643836,7.23287671 L33.4520548,9.04109589 L30.739726,7.23287671 L30.739726,0 C30.739726,0 27.1232877,2.4109589 27.1232877,5.42465753 C27.1232877,7.23287671 27.1232877,5.42465753 27.1232877,7.23287671 C27.1232877,10.2465753 30.739726,12.0547945 30.739726,12.0547945 L30.739726,18.0821918 L13.260274,18.0821918 L13.260274,10.8493151 L7.83561644,10.8493151 L7.83561644,18.0821918 C7.83561644,18.0821918 3.01369863,18.0821918 1.80821918,18.0821918 C0.602739726,18.0821918 0,18.6849315 0,19.890411 C0,21.0958904 0,25.9178082 0,27.1232877 C0,28.3287671 0.602739726,28.9315068 1.80821918,28.9315068 C3.01369863,28.9315068 39.7808219,28.9315068 41.5890411,28.9315068 C42.7945205,28.9315068 43.3972603,28.3287671 43.3972603,27.1232877 C43.4575342,25.3150685 43.3972603,21.6986301 43.3972603,19.890411 C43.3972603,18.6849315 42.7945205,18.0821918 41.5890411,18.0821918 C40.0219178,18.0821918 36.1643836,18.0821918 36.1643836,18.0821918 L36.1643836,12.0547945 Z M5.42465753,25.3150685 C4.4,25.3150685 3.61643836,24.5315068 3.61643836,23.5068493 C3.61643836,22.4821918 4.4,21.6986301 5.42465753,21.6986301 C6.44931507,21.6986301 7.23287671,22.4821918 7.23287671,23.5068493 C7.23287671,24.5315068 6.44931507,25.3150685 5.42465753,25.3150685 Z M37.9726027,21.6986301 C38.9972603,21.6986301 39.7808219,22.4821918 39.7808219,23.5068493 C39.7808219,24.5315068 38.9972603,25.3150685 37.9726027,25.3150685 C36.9479452,25.3150685 36.1643836,24.5315068 36.1643836,23.5068493 C36.1643836,22.4821918 36.9479452,21.6986301 37.9726027,21.6986301 Z M0,34.3561644 C0,35.5616438 0,40.3835616 0,41.5890411 C0,42.7945205 0.602739726,43.3972603 1.80821918,43.3972603 C3.01369863,43.3972603 40.3835616,43.3972603 41.5890411,43.3972603 C42.7945205,43.3972603 43.3972603,42.7945205 43.3972603,41.5890411 C43.3972603,40.3835616 43.3972603,35.5616438 43.3972603,34.3561644 C43.3972603,33.1506849 42.7945205,32.5479452 41.5890411,32.5479452 C40.3835616,32.5479452 3.01369863,32.5479452 1.80821918,32.5479452 C0.602739726,32.5479452 0,33.1506849 0,34.3561644 Z M5.42465753,39.7808219 C4.4,39.7808219 3.61643836,38.9972603 3.61643836,37.9726027 C3.61643836,36.9479452 4.4,36.1643836 5.42465753,36.1643836 C6.44931507,36.1643836 7.23287671,36.9479452 7.23287671,37.9726027 C7.23287671,38.9972603 6.44931507,39.7808219 5.42465753,39.7808219 Z M37.9726027,36.1643836 C38.9972603,36.1643836 39.7808219,36.9479452 39.7808219,37.9726027 C39.7808219,38.9972603 38.9972603,39.7808219 37.9726027,39.7808219 C36.9479452,39.7808219 36.1643836,38.9972603 36.1643836,37.9726027 C36.1643836,36.9479452 36.9479452,36.1643836 37.9726027,36.1643836 Z" id="base" fill="#008000" fill-rule="nonzero"></path>
                    <mask id="mask-2" fill="white">
                        <use xlink:href="#path-1"></use>
                    </mask>
                    <use id="clip" fill="#409F40" xlink:href="#path-1"></use>
                </g>
            </g>
        </g>
    </g>
</svg>