<?xml version="1.0" encoding="UTF-8"?>
<svg width="48px" height="48px" viewBox="0 0 48 48" version="1.1" xmlns="http://www.w3.org/2000/svg" xmlns:xlink="http://www.w3.org/1999/xlink">
    <!-- Generator: Sketch 55.1 (78136) - https://sketchapp.com -->
    <title>vod</title>
    <desc>Created with Sketch.</desc>
    <g id="图标切图20200305" stroke="none" stroke-width="1" fill="none" fill-rule="evenodd">
        <g id="Color-icons" transform="translate(-297.000000, -147.000000)" fill-rule="nonzero">
            <g id="vod" transform="translate(297.000000, 147.000000)">
                <g transform="translate(2.000000, 2.000000)">
                    <path d="M22,0 C34.152381,0 44,9.84761905 44,22 C44,34.152381 34.152381,44 22,44 C9.84761905,44 0,34.152381 0,22 C0,9.84761905 9.84761905,0 22,0 Z M30.0142857,23.6761905 C30.0666667,23.6761905 30.9047619,22.9952381 30.9047619,22.052381 C30.9047619,21.3714286 30.5380952,20.7428571 29.8571429,20.2190476 L29.8047619,20.2190476 L17.8619048,12.4666667 C17.7571429,12.4142857 16.8666667,11.9952381 16.0809524,12.3619048 C15.6095238,12.5714286 15.2952381,13.0428571 15.1904762,13.7238095 L15.1904762,29.5952381 C15.1904762,29.752381 15.1904762,31.1142857 16.0809524,31.6380952 C16.2904762,31.7952381 16.552381,31.847619 16.8142857,31.847619 C17.1809524,31.847619 17.652381,31.6904762 18.1238095,31.4285714 L18.1761905,31.4285714 L30.0142857,23.6761905 Z" id="base" fill="#1E90FF"></path>
                    <path d="M33.9804439,40.4560171 C30.5335551,42.6977653 26.4191667,44 22,44 C9.84761905,44 2.84217094e-14,34.152381 2.84217094e-14,22 C2.84217094e-14,17.5808333 1.30223468,13.4664449 3.54398286,10.0195561 C7.70230638,10.7635887 11.6243753,12.1891828 15.190484,14.1766328 L15.1904762,29.5952381 C15.1904762,29.752381 15.1904762,31.1142857 16.0809524,31.6380952 C16.2904762,31.7952381 16.552381,31.847619 16.8142857,31.847619 C17.1809524,31.847619 17.652381,31.6904762 18.1238095,31.4285714 L18.1761905,31.4285714 L27.5832124,25.2682208 C30.7519271,29.7111503 32.9810406,34.8704521 33.9804439,40.4560171 Z" id="clip" fill="#56ABFF"></path>
                </g>
            </g>
        </g>
    </g>
</svg>