<?xml version="1.0" encoding="UTF-8"?>
<svg width="24px" height="24px" viewBox="0 0 24 24" version="1.1" xmlns="http://www.w3.org/2000/svg" xmlns:xlink="http://www.w3.org/1999/xlink">
    <!-- Generator: Sketch 55.1 (78136) - https://sketchapp.com -->
    <title>star-fill</title>
    <desc>Created with Sketch.</desc>
    <g id="图标切图20200305" stroke="none" stroke-width="1" fill="none" fill-rule="evenodd">
        <g id="Other-icons" transform="translate(-24.000000, -78.000000)" fill="#FF4500" fill-rule="nonzero">
            <g id="star-fill" transform="translate(24.000000, 78.000000)">
                <path d="M11.9999763,18.7642193 L6.21529191,21.9558974 C6.03676941,22.0543965 5.81596396,21.9823634 5.72210912,21.795007 C5.68473564,21.7204006 5.67183897,21.634945 5.68541569,21.5518697 L6.7901921,14.7917869 L2.11028413,10.0042698 C1.96585639,9.85652109 1.96290114,9.61387164 2.10368339,9.46229708 C2.15974362,9.40193929 2.23319937,9.36265965 2.31267884,9.35053912 L8.78015258,8.36425634 L11.6724948,2.21372991 C11.761756,2.02391707 11.980735,1.94598458 12.1615981,2.03966281 C12.2336187,2.07696598 12.2919135,2.13814544 12.3274578,2.21372991 L15.2198,8.36425634 L21.6872737,9.35053912 C21.886868,9.38097703 22.0251597,9.57546154 21.9961569,9.78493244 C21.9846079,9.86834485 21.9471803,9.94543547 21.8896684,10.0042698 L17.2097605,14.7917869 L18.3145369,21.5518697 C18.3486317,21.7604942 18.2151216,21.9586247 18.0163339,21.9944066 C17.9371756,22.0086551 17.8557493,21.9951203 17.7846607,21.9558974 L11.9999763,18.7642193 Z"></path>
            </g>
        </g>
    </g>
</svg>