<?xml version="1.0" encoding="UTF-8"?>
<svg width="24px" height="24px" viewBox="0 0 24 24" version="1.1" xmlns="http://www.w3.org/2000/svg" xmlns:xlink="http://www.w3.org/1999/xlink">
    <!-- Generator: Sketch 55.1 (78136) - https://sketchapp.com -->
    <title>star-half</title>
    <desc>Created with Sketch.</desc>
    <defs>
        <path d="M10,9.16346794e-08 L10,16.7642324 L4.21529191,19.9558974 C4.03676941,20.0543965 3.81596396,19.9823634 3.72210912,19.795007 C3.68473564,19.7204006 3.67183897,19.634945 3.68541569,19.5518697 L4.7901921,12.7917869 L0.110284129,8.00426978 C-0.0341436072,7.85652109 -0.0370988588,7.61387164 0.103683389,7.46229708 C0.159743619,7.40193929 0.23319937,7.36265965 0.312678836,7.35053912 L6.78015258,6.36425634 L9.67249477,0.213729906 C9.73607129,0.0785353108 9.86545402,9.7958806e-05 10,9.1691528e-08 Z" id="path-1"></path>
    </defs>
    <g id="图标切图20200305" stroke="none" stroke-width="1" fill="none" fill-rule="evenodd">
        <g id="Other-icons" transform="translate(-88.000000, -78.000000)">
            <g id="star-half" transform="translate(88.000000, 78.000000)">
                <g transform="translate(2.000000, 2.000000)">
                    <path d="M9.99997629,16.7642193 L4.21529191,19.9558974 C4.03676941,20.0543965 3.81596396,19.9823634 3.72210912,19.795007 C3.68473564,19.7204006 3.67183897,19.634945 3.68541569,19.5518697 L4.7901921,12.7917869 L0.110284129,8.00426978 C-0.0341436072,7.85652109 -0.0370988588,7.61387164 0.103683389,7.46229708 C0.159743619,7.40193929 0.23319937,7.36265965 0.312678836,7.35053912 L6.78015258,6.36425634 L9.67249477,0.213729906 C9.76175602,0.0239170689 9.98073503,-0.0540154239 10.1615981,0.0396628115 C10.2336187,0.0769659762 10.2919135,0.138145439 10.3274578,0.213729906 L13.2198,6.36425634 L19.6872737,7.35053912 C19.886868,7.38097703 20.0251597,7.57546154 19.9961569,7.78493244 C19.9846079,7.86834485 19.9471803,7.94543547 19.8896684,8.00426978 L15.2097605,12.7917869 L16.3145369,19.5518697 C16.3486317,19.7604942 16.2151216,19.9586247 16.0163339,19.9944066 C15.9371756,20.0086551 15.8557493,19.9951203 15.7846607,19.9558974 L9.99997629,16.7642193 Z M9.99997629,14.4799917 L13.8019493,16.5777162 L13.0728943,12.1166578 L16.2644767,8.85168853 L11.8638434,8.18059669 L9.99997629,4.21710855 L8.13610917,8.18059669 L3.73547586,8.85168853 L6.92705829,12.1166578 L6.1980033,16.5777162 L9.99997629,14.4799917 Z" id="star-fill" fill="#C0C6CC" fill-rule="nonzero"></path>
                    <mask id="mask-2" fill="white">
                        <use xlink:href="#path-1"></use>
                    </mask>
                    <use id="形状结合" fill="#FF4500" xlink:href="#path-1"></use>
                </g>
            </g>
        </g>
    </g>
</svg>